<?xml version="1.0" encoding="iso-8859-1"?>
<!-- Generator: Adobe Illustrator 19.0.0, SVG Export Plug-In . SVG Version: 6.00 Build 0)  -->
<svg version="1.1" id="Layer_1" xmlns="http://www.w3.org/2000/svg" xmlns:xlink="http://www.w3.org/1999/xlink" x="0px" y="0px"
	 viewBox="0 0 511.999 511.999" style="enable-background:new 0 0 511.999 511.999;" xml:space="preserve">
<path style="fill:#31CCC9;" d="M377.983,335.567c45.734,0,82.813,37.079,82.813,82.813s-37.079,82.813-82.813,82.813
	c-29.266,0-54.985-15.179-69.718-38.083c-8.296-12.897-13.108-28.249-13.108-44.73c0-44.383,34.933-80.618,78.807-82.714
	C375.304,335.604,376.631,335.567,377.983,335.567z"/>
<path style="fill:#FFDB6F;" d="M326.408,313.841c19.01,0,36.062,8.457,47.557,21.825c-43.874,2.096-78.807,38.331-78.807,82.714
	c0,16.481,4.812,31.833,13.108,44.73H68.024c-10.454,0-18.936-8.482-18.936-18.949v-67.647c0-34.611,28.063-62.674,62.674-62.674
	v-0.012c12.636-0.223,24.479-3.658,34.76-9.536l0.099,0.174c38.554,43.552,106.523,43.552,145.09,0l0.062-0.112
	c10.243,5.828,22.049,9.239,34.636,9.462V313.841z"/>
<path style="fill:#F27258;" d="M307.782,142.201c-1.128-18.39-16.419-32.949-35.082-32.949h-71.044
	c-6.696,0-12.872-2.195-17.845-5.915c-4.353-3.249-7.8-7.676-9.859-12.798c-0.843-2.108-3.881-1.86-4.452,0.335
	c-6.126,23.524-19.978,43.75-38.579,57.962h-0.099c-1.91-4.675-3.534-9.561-4.836-14.658c-12.488-48.996,9.66-98.029,49.479-109.537
	c4.762-1.376,9.573-2.121,14.36-2.331c11.533-6.064,24.417-9.549,38.071-9.549c48.487,0,87.786,42.746,87.786,95.487
	c0,14.063-2.803,27.406-7.8,39.422l-0.025-0.012v-3.249C307.856,143.664,307.831,142.932,307.782,142.201z"/>
<g>
	<path style="fill:#E4F5F4;" d="M272.7,109.251c18.663,0,33.954,14.559,35.082,32.949c-1.773,46.354-22.966,85.777-52.778,103.609
		c-10.962,6.572-23.09,10.218-35.851,10.218c-12.81,0-24.988-3.683-35.987-10.293c-28.237-17.002-48.698-53.348-52.195-96.615
		l-0.05-0.285c18.601-14.211,32.453-34.437,38.579-57.962c0.57-2.195,3.609-2.443,4.452-0.335c2.059,5.122,5.506,9.549,9.859,12.798
		c4.973,3.72,11.148,5.915,17.845,5.915H272.7z"/>
	<path style="fill:#E4F5F4;" d="M291.772,304.354l-0.062,0.112c-38.567,43.552-106.536,43.552-145.09,0l-0.099-0.174
		c20.685-11.793,35.02-33.433,36.645-58.557c11,6.61,23.177,10.293,35.987,10.293c12.76,0,24.889-3.646,35.851-10.218l0.012,0.012
		C256.69,270.946,271.05,292.586,291.772,304.354z"/>
</g>
<g>
	<path style="fill:#201F2E;" d="M378.418,321.569c-0.174,0-0.344,0.012-0.517,0.012c-22.076-21.178-49.419-20.494-49.675-20.494
		c-30.264,0-55.862-22.06-60.87-51.274c8.751-6.248,16.823-14.27,23.961-23.931c15.387-20.83,24.891-47.353,27.448-75.911
		c5.642-13.668,8.518-28.237,8.518-43.322C327.282,47.842,282.897,0,228.342,0c-14.229,0-28.036,3.269-41.078,9.719
		c-4.954,0.388-9.808,1.264-14.459,2.609c-45.481,13.141-71.137,68.324-57.193,123.011c1.296,5.078,2.93,10.074,4.838,14.886
		c3.967,43.444,23.735,79.741,51.291,99.437c-11.384,52.756-61.671,51.446-62.051,51.485c-39.554,1.334-71.325,33.905-71.325,73.778
		v67.647c0,16.6,13.505,30.103,30.103,30.103h186.995c6.164,0,11.161-4.996,11.161-11.161c0-6.164-4.996-11.161-11.161-11.161
		H68.468c-4.291,0-7.782-3.491-7.782-7.782v-67.647c0-28.408,23.113-51.521,51.521-51.521c0.381,0,16.91,0,32.304-7.073
		c20.061,19.387,46.983,30.362,75.09,30.362c28.092,0,54.999-10.961,75.056-30.329c9.597,4.205,20.099,6.66,31.095,6.983
		c0.361,0.036,10.853-0.314,20.464,3.837c-36.7,13.232-63.012,48.396-63.012,89.6c0,52.501,42.714,95.215,95.215,95.215
		s95.216-42.713,95.216-95.215C473.634,364.282,430.92,321.569,378.418,321.569z M179.003,33.77
		c3.745-1.083,7.705-1.725,11.767-1.907c1.637-0.074,3.238-0.507,4.689-1.269c10.446-5.49,21.51-8.273,32.883-8.273
		c42.247,0,76.619,37.829,76.619,84.327c0,1.455-0.038,2.903-0.104,4.344c-6.436-9.266-17.088-14.499-31.721-14.499h-71.042
		c-4.065,0-7.925-1.277-11.163-3.694c-2.764-2.062-4.9-4.834-6.176-8.013c-2.173-5.414-7.542-8.801-13.363-8.433
		c-5.852,0.372-10.778,4.435-12.257,10.114c-3.97,15.257-11.772,29.349-22.468,40.894C126.98,85.065,145.622,43.415,179.003,33.77z
		 M168.826,216.454c-13.769-16.82-22.81-39.513-25.742-64.369c13.858-11.834,24.834-26.773,31.976-43.433
		c0.809,0.709,1.648,1.389,2.515,2.036c7.123,5.317,15.6,8.129,24.515,8.129h71.042c12.531,0,22.835,9.658,23.895,21.92
		c-1.739,41.854-20.373,77.433-46.441,93.454c-0.548,0.267-13.578,9.084-30.99,9.084
		C201.013,243.272,182.982,233.747,168.826,216.454z M219.6,324.373c-20.36,0-39.922-7.276-55.288-20.244
		c13.389-11.055,23.347-26.165,27.885-43.508c8.719,3.242,17.913,4.974,27.401,4.974c9.382,0,18.545-1.663,27.3-4.882
		c4.561,17.329,14.536,32.423,27.935,43.464C259.477,317.116,239.935,324.373,219.6,324.373z M378.418,487.198
		c-38.826,0-70.413-31.587-70.413-70.413s31.587-70.414,70.413-70.414c38.827,0,70.415,31.589,70.415,70.414
		S417.244,487.198,378.418,487.198z"/>
	<path style="fill:#201F2E;" d="M414.413,404.384h-23.594V380.79c0-6.848-5.552-12.401-12.401-12.401s-12.401,5.553-12.401,12.401
		v23.594h-23.594c-6.849,0-12.401,5.553-12.401,12.401s5.552,12.401,12.401,12.401h23.594v23.594
		c0,6.848,5.552,12.401,12.401,12.401s12.401-5.553,12.401-12.401v-23.594h23.594c6.849,0,12.401-5.553,12.401-12.401
		S421.262,404.384,414.413,404.384z"/>
</g>
<g>
</g>
<g>
</g>
<g>
</g>
<g>
</g>
<g>
</g>
<g>
</g>
<g>
</g>
<g>
</g>
<g>
</g>
<g>
</g>
<g>
</g>
<g>
</g>
<g>
</g>
<g>
</g>
<g>
</g>
</svg>
