<?xml version="1.0" encoding="UTF-8"?>
<svg width="22px" height="18px" viewBox="0 0 22 18" version="1.1" xmlns="http://www.w3.org/2000/svg" xmlns:xlink="http://www.w3.org/1999/xlink">
    <!-- Generator: Sketch 43.1 (39012) - http://www.bohemiancoding.com/sketch -->
    <title>Icon/Analysis</title>
    <desc>Created with Sketch.</desc>
    <defs></defs>
    <g id="Page-1" stroke="none" stroke-width="1" fill="none" fill-rule="evenodd">
        <g id="Dormitory-CRM" transform="translate(-637.000000, -24.000000)">
            <g id="Header">
                <g id="Button" transform="translate(636.000000, 21.000000)">
                    <g id="Icon/Analysis">
                        <rect id="Placeholder" x="0" y="0" width="24" height="24"></rect>
                        <path d="M15,19 L15,12 L20.999,12 L20.999,19 L15,19 Z M9,19 L9,3 L15,3 L15,19 L9,19 Z M1,21 L1,19 L23,19 L23,21 L1,21 Z M3,19 L3,8 L8.999,8 L8.999,19 L3,19 Z M15,19 L15,13 L20,13 L20,19 L15,19 Z M4,19 L4,9 L9,9 L9,19 L4,19 Z" id="Icon" fill="#000000" fill-rule="evenodd"></path>
                    </g>
                </g>
            </g>
        </g>
    </g>
</svg>