<?xml version="1.0" encoding="UTF-8"?>
<svg width="24px" height="24px" viewBox="0 0 24 24" version="1.1" xmlns="http://www.w3.org/2000/svg" xmlns:xlink="http://www.w3.org/1999/xlink">
    <!-- Generator: Sketch 43.1 (39012) - http://www.bohemiancoding.com/sketch -->
    <title>Calendar</title>
    <desc>Created with Sketch.</desc>
    <defs></defs>
    <g id="Icon" stroke="none" stroke-width="1" fill="none" fill-rule="evenodd">
        <g id="Calender">
            <path d="M16.00025,3 L16.00025,5 L7.99975002,5 L7.99975002,3 L6.99981251,3 L6.99981251,5 L4,5 L4,20 L20,20 L20,5 L17.0001875,5 L17.0001875,3 L16.00025,3 Z M17.0001875,7.001 L17.0001875,6 L19.0000625,6 L19.0000625,8 L4.9999375,8 L4.9999375,6 L6.99981251,6 L6.99981251,7.001 L7.99975002,7.001 L7.99975002,6 L16.00025,6 L16.00025,7.001 L17.0001875,7.001 Z M4.9999375,19 L18.9990626,19 L18.9990626,9 L4.9999375,9 L4.9999375,19 Z M15.5,17.5 L17.5,17.5 L17.5,16.5 L15.5,16.5 L15.5,17.5 Z M12.5,17.5 L14.5,17.5 L14.5,16.5 L12.5,16.5 L12.5,17.5 Z M6.5,17.5 L8.5,17.5 L8.5,16.5 L6.5,16.5 L6.5,17.5 Z M9.5,17.5 L11.5,17.5 L11.5,16.5 L9.5,16.5 L9.5,17.5 Z M15.5,15.5 L17.5,15.5 L17.5,14.5 L15.5,14.5 L15.5,15.5 Z M12.5,15.5 L14.5,15.5 L14.5,14.5 L12.5,14.5 L12.5,15.5 Z M6.5,15.5 L8.5,15.5 L8.5,14.5 L6.5,14.5 L6.5,15.5 Z M9.5,15.5 L11.5,15.5 L11.5,14.5 L9.5,14.5 L9.5,15.5 Z M15.5,13.5 L17.5,13.5 L17.5,12.5 L15.5,12.5 L15.5,13.5 Z M12.5,13.5 L14.5,13.5 L14.5,12.5 L12.5,12.5 L12.5,13.5 Z M6.5,13.5 L8.5,13.5 L8.5,12.5 L6.5,12.5 L6.5,13.5 Z M9.5,13.5 L11.5,13.5 L11.5,12.5 L9.5,12.5 L9.5,13.5 Z M15.5,11.5 L17.5,11.5 L17.5,10.5 L15.5,10.5 L15.5,11.5 Z M12.5,11.5 L14.5,11.5 L14.5,10.5 L12.5,10.5 L12.5,11.5 Z M9.5,11.5 L11.5,11.5 L11.5,10.5 L9.5,10.5 L9.5,11.5 Z" id="Icon" fill-opacity="0.54" fill="#000000"></path>
            <rect id="Placeholder" x="0" y="0" width="24" height="24"></rect>
        </g>
    </g>
</svg>
