<svg height="511pt" viewBox="0 0 511.9991 511" width="511pt" xmlns="http://www.w3.org/2000/svg"><path d="m299.792969 51.789062-29.996094 65.984376c-2.699219 5.097656-7.796875 8.699218-13.796875 8.699218s-11.097656-3.601562-13.800781-8.699218l-29.992188-65.984376c-3.300781-7.5 0-16.496093 7.5-20.097656 7.796875-3.296875 16.496094 0 20.09375 7.5l16.195313 35.992188 16.199218-35.992188c3.597657-7.5 12.296876-10.796875 20.09375-7.5 7.503907 3.601563 10.800782 12.597656 7.503907 20.097656zm0 0" fill="#b35f49"/><path d="m256 126.476562v-51.292968l16.195312-35.992188c3.597657-7.5 12.296876-10.796875 20.097657-7.5 7.496093 3.601563 10.796875 12.597656 7.496093 20.097656l-29.992187 65.984376c-2.699219 5.101562-7.796875 8.703124-13.796875 8.703124zm0 0" fill="#99503d"/><path d="m510.148438 504.597656c-2.699219 4.796875-8.800782 7.800782-14.199219 7.800782h-97.777344l-129.574219-87.984376c-2.699218-4.5-7.800781-6.597656-12.597656-6.597656s-9.898438 2.097656-12.597656 6.597656l-129.574219 87.984376h-97.78125c-5.398437 0-11.496094-3.003907-14.195313-7.800782-2.699218-4.800781-2.402343-10.496094.601563-15.296875l240.949219-385.921875c2.699218-4.5 7.800781-6.601562 12.597656-6.601562 4.800781 0 9.898438 2.101562 12.597656 6.601562l240.953125 385.921875c2.996094 4.800781 3.296875 10.496094.597657 15.296875zm0 0" fill="#ffd400"/><path d="m510.148438 504.597656c-2.699219 4.796875-8.800782 7.800782-14.199219 7.800782h-97.777344l-129.574219-87.984376c-2.699218-4.5-7.800781-6.597656-12.597656-6.597656v-321.039062c4.796875 0 9.898438 2.101562 12.597656 6.601562l240.949219 385.921875c3 4.800781 3.300781 10.496094.601563 15.296875zm0 0" fill="#ff9f00"/><path d="m450.960938 255.449219c0 8.28125-6.714844 14.996093-15 14.996093-8.28125 0-14.996094-6.714843-14.996094-14.996093 0-8.285157 6.714844-14.996094 14.996094-14.996094 8.285156 0 15 6.710937 15 14.996094zm0 0" fill="#dfd7d5"/><path d="m121.027344 195.460938c0 8.28125-6.714844 14.996093-15 14.996093-8.28125 0-14.996094-6.714843-14.996094-14.996093 0-8.285157 6.714844-14.996094 14.996094-14.996094 8.285156 0 15 6.710937 15 14.996094zm0 0" fill="#ede9e8"/><path d="m473.15625 91.082031c-10.496094-18.597656-30.292969-30.59375-52.191406-30.59375-21.894532 0-41.691406 11.996094-52.1875 30.59375-21.296875 3.296875-37.792969 21.894531-37.792969 44.390625 0 24.894532 20.09375 44.992188 44.992187 44.992188h89.980469c24.894531 0 45.992188-20.097656 45.992188-44.992188 0-22.496094-17.496094-41.09375-38.792969-44.390625zm0 0" fill="#dfd7d5"/><path d="m360.976562 15.496094c0 8.28125-6.714843 14.996094-14.996093 14.996094s-14.996094-6.714844-14.996094-14.996094 6.714844-14.996094 14.996094-14.996094 14.996093 6.714844 14.996093 14.996094zm0 0" fill="#dfd7d5"/><path d="m143.222656 31.09375c-10.496094-18.597656-30.296875-30.59375-52.191406-30.59375s-41.691406 11.996094-52.1875 30.59375c-21.296875 3.300781-38.7929688 21.894531-38.7929688 44.390625 0 24.894531 21.0937498 44.992187 45.9921878 44.992187h89.980469c24.894531 0 44.992187-20.097656 44.992187-44.992187 0-22.496094-16.496094-41.089844-37.792969-44.390625zm0 0" fill="#ede9e8"/><path d="m398.171875 512.398438h-284.34375l129.574219-208.960938c2.699218-4.496094 7.796875-6.597656 12.597656-6.597656 4.796875 0 9.898438 2.101562 12.597656 6.597656zm0 0" fill="#99503d"/><path d="m398.171875 512.398438h-142.171875v-215.558594c4.796875 0 9.898438 2.101562 12.59375 6.597656zm0 0" fill="#53433f"/></svg>