<?xml version="1.0" encoding="UTF-8"?>
<svg width="40px" height="40px" viewBox="0 0 40 40" version="1.1" xmlns="http://www.w3.org/2000/svg" xmlns:xlink="http://www.w3.org/1999/xlink">
    <!-- Generator: Sketch 43.1 (39012) - http://www.bohemiancoding.com/sketch -->
    <title>Closed</title>
    <desc>Created with Sketch.</desc>
    <defs></defs>
    <g id="Icon" stroke="none" stroke-width="1" fill="none" fill-rule="evenodd">
        <g id="Closed">
            <rect id="Placeholder" x="0" y="0" width="40" height="40"></rect>
            <path d="M16.6329351,32.1025455 C16.5562597,32.1025455 16.4786494,32.0922597 16.401974,32.0726234 C16.0475844,31.9800519 15.7595844,31.692987 15.667013,31.3385974 C15.5800519,31.0057143 15.6829091,30.6681558 15.9512727,30.411013 L18.9603117,27.4029091 L15.9475325,24.3891948 C15.6595325,24.1096104 15.5744416,23.7019221 15.7259221,23.326961 C15.8783377,22.9529351 16.2243117,22.7201039 16.6291948,22.7201039 C16.8900779,22.7201039 17.1453506,22.8267013 17.3267532,23.0137143 L20.3376623,26.0246234 L23.3504416,23.0118442 C23.5252987,22.8323117 23.7637403,22.7275844 24.0171429,22.7201039 L24.0470649,22.7201039 C24.4407273,22.7201039 24.7904416,22.9501299 24.9437922,23.3148052 C25.1018182,23.686961 25.0148571,24.1096104 24.7240519,24.392 L21.715013,27.4029091 L24.7268571,30.4147532 C24.9905455,30.6681558 25.0943377,31.0057143 25.0073766,31.3385974 C24.9148052,31.692987 24.6277403,31.9800519 24.2733506,32.0726234 C23.9423377,32.1605195 23.6029091,32.0557922 23.3467013,31.7883636 L20.3376623,28.7793247 L17.3248831,31.7921039 C17.1303896,31.995013 16.8863377,32.1025455 16.6329351,32.1025455 L16.6329351,32.1025455 Z M12.1951169,18.7535584 C11.4956883,18.7535584 10.9477403,19.3015065 10.9477403,20 L10.9477403,34.8048831 C10.9477403,35.5043117 11.4956883,36.0522597 12.1951169,36.0522597 L28.4802078,36.0522597 C29.1796364,36.0522597 29.7275844,35.5043117 29.7275844,34.8048831 L29.7275844,13.3376623 C29.7275844,8.16020779 25.5151169,3.94774026 20.3376623,3.94774026 C15.6679481,3.94774026 11.7659221,7.28872727 11.0580779,11.8920519 C11.0412468,12.0248312 11.1010909,12.1276883 11.1562597,12.1894026 C11.2544416,12.3025455 11.4087273,12.3698701 11.5667532,12.3698701 L14.6057143,12.3773506 C14.8217143,12.3773506 15.0208831,12.2268052 15.0882078,12.0098701 C15.5164675,10.3463896 16.7011948,8.98119481 18.2646234,8.33412987 C20.2946494,7.49350649 22.6126753,7.95355844 24.1667532,9.50857143 C25.7217662,11.0635844 26.1818182,13.3797403 25.3402597,15.4107013 C24.4996364,17.4407273 22.536,18.7535584 20.3376623,18.7535584 L12.1951169,18.7535584 Z M28.4802078,38 L12.1951169,38 C10.4334545,38 9,36.5656104 9,34.8048831 L9,20 C9,18.2383377 10.4334545,16.8048831 12.1951169,16.8048831 L20.3376623,16.8048831 C21.7449351,16.8048831 23.0025974,15.9642597 23.5421299,14.6645195 C24.0797922,13.3638442 23.7843117,11.8808312 22.7894026,10.8859221 C21.7954286,9.89101299 20.3124156,9.59553247 19.0098701,10.1341299 C18.0093506,10.5483636 17.2463377,11.4207792 16.9704935,12.468987 C16.6834286,13.5574026 15.710961,14.3185455 14.6047792,14.3185455 L11.5658182,14.3110649 C10.8317922,14.3110649 10.1024416,13.9800519 9.61620779,13.4264935 C9.20945455,12.9617662 9.02524675,12.3932468 9.10005195,11.8256623 C9.8481039,6.22368831 14.6786494,2 20.3376623,2 C26.5885714,2 31.6753247,7.08581818 31.6753247,13.3376623 L31.6753247,34.8048831 C31.6753247,36.5656104 30.2418701,38 28.4802078,38 L28.4802078,38 Z" id="Icon" fill="#9E9E9E"></path>
        </g>
    </g>
</svg>