<?xml version="1.0" ?><svg height="24px" version="1.1" viewBox="0 0 24 24" width="24px" xmlns="http://www.w3.org/2000/svg" xmlns:sketch="http://www.bohemiancoding.com/sketch/ns" xmlns:xlink="http://www.w3.org/1999/xlink"><title/><desc/><defs/><g fill="none" fill-rule="evenodd" id="miu" stroke="none" stroke-width="1"><g id="Artboard-1" transform="translate(-647.000000, -299.000000)"><g id="slice" transform="translate(215.000000, 119.000000)"/><path d="M665.875,318.01931 L666.5625,317.963901 C668.513625,317.64613 670,315.998527 670,314.013793 C670,312.26939 668.851875,310.785346 667.248625,310.235923 C667.190875,306.781832 664.288937,304 660.71875,304 C658.143375,304 655.916563,305.447327 654.853,307.550223 C654.34975,307.010146 653.621688,306.670345 652.8125,306.670345 C651.293813,306.670345 650.0625,307.865992 650.0625,309.34069 C650.0625,309.725887 650.146375,310.091724 650.296938,310.422179 C648.935687,311.076414 648,312.438957 648,314.013793 C648,315.998527 649.486375,317.64613 651.4375,317.963901 L652.125,318.01931 L658.931034,318.01931 L659.068965,318 L665.875,318.01931 Z M665.877837,317.019314 L666.401752,316.976905 C667.897527,316.733295 669,315.479948 669,314.013793 C669,312.736522 668.162278,311.606116 666.924439,311.181916 L666.260497,310.954388 L666.248765,310.25264 C666.200183,307.346899 663.745524,305 660.71875,305 C658.579673,305 656.665599,306.182034 655.745361,308.001545 L655.098491,309.280551 L654.121389,308.231946 C653.791103,307.87749 653.320902,307.670345 652.8125,307.670345 C651.839626,307.670345 651.0625,308.424961 651.0625,309.34069 C651.0625,309.574129 651.112001,309.799205 651.206935,310.007565 L651.613136,310.899097 L650.730118,311.323487 C649.675676,311.830265 649,312.865772 649,314.013793 C649,315.479948 650.102473,316.733295 651.517835,316.967133 L652.125,317.01931 L665.877837,317.019314 Z M662,312.5 L660.004517,312.5 L660.004517,308 L658.013184,308 L658.013184,312.5 L656,312.5 L659,316 L662,312.5 Z" fill="#000000" id="cloud-cloud_download-arrow-down-outline-stroke"/></g></g></svg>