<?xml version="1.0" encoding="UTF-8"?>
<svg width="24px" height="24px" viewBox="0 0 24 24" version="1.1" xmlns="http://www.w3.org/2000/svg" xmlns:xlink="http://www.w3.org/1999/xlink">
    <!-- Generator: Sketch 43.1 (39012) - http://www.bohemiancoding.com/sketch -->
    <title>Double</title>
    <desc>Created with Sketch.</desc>
    <defs></defs>
    <g id="Icon" stroke="none" stroke-width="1" fill="none" fill-rule="evenodd">
        <g id="Double">
            <rect id="Placeholder" x="0" y="0" width="24" height="24"></rect>
            <path d="M20.0513076,9.67223914 C19.3142161,8.02950437 17.633208,7.01847585 15.8366137,7.13734598 C14.0400193,7.25621611 12.5068696,8.47990664 11.9926362,10.2054342 C11.6675793,9.88750473 11.3068074,9.60827715 10.9175258,9.3733282 C12.1609877,8.14569103 12.5396835,6.28852075 11.8761677,4.67203153 C11.2126518,3.0555423 9.63838299,2 7.8910162,2 C6.14364941,2 4.56938058,3.0555423 3.90586473,4.67203153 C3.24234888,6.28852075 3.62104467,8.14569103 4.86450663,9.3733282 C3.08840158,10.4368919 2.00091088,12.3546775 2,14.4248746 C2,16.5309129 5.17378498,17.2746537 7.8910162,17.2746537 C8.88204466,17.2802732 9.87041352,17.1715527 10.8365243,16.9506478 C10.432865,17.7605324 10.2212062,18.6525227 10.2179676,19.5574225 C10.2179676,21.6634608 13.3917526,22.4072015 16.1089838,22.4072015 C18.826215,22.4072015 22,21.6708245 22,19.5574225 C21.9990891,17.4872254 20.9115984,15.5694397 19.1354934,14.5058761 C20.4260685,13.242844 20.7883991,11.3149739 20.0513076,9.67223914 Z M6.46244477,10.1538879 C6.71121162,10.0439472 6.8791232,9.80583668 6.89915789,9.53459784 C6.91919258,9.263359 6.78808779,9.00316209 6.55817378,8.85786429 C5.3680026,8.24446583 4.75216151,6.89627714 5.06775237,5.59505943 C5.38334323,4.29384171 6.54839252,3.3775813 7.88733432,3.3775813 C9.22627611,3.3775813 10.3913254,4.29384171 10.7069163,5.59505943 C11.0225071,6.89627714 10.406666,8.24446583 9.21649485,8.85786429 C8.98658084,9.00316209 8.85547605,9.263359 8.87551074,9.53459784 C8.89554543,9.80583668 9.06345701,10.0439472 9.31222386,10.1538879 C10.4812516,10.5546264 11.4326494,11.4207449 11.9410898,12.5471132 C12.0041554,12.7999808 12.0904322,13.046486 12.1988218,13.2834902 C12.3005615,13.6604688 12.3525489,14.049137 12.353461,14.4396021 C12.353461,15.1244328 10.5125184,15.9123562 7.86892489,15.9123562 C5.22533137,15.9123562 3.38438881,15.1759792 3.38438881,14.4396021 C3.39552825,12.4905301 4.6281042,10.7678938 6.46244477,10.1538879 Z M11.6097202,19.5426949 C11.6178064,17.6160307 12.8575818,15.9105979 14.6877761,15.308527 C14.9374454,15.2001105 15.1069461,14.9628106 15.1285297,14.6914749 C15.1501132,14.4201393 15.0202589,14.159027 14.7908689,14.0125035 C14.2408207,13.7272279 13.7968575,13.27294 13.5243004,12.7164799 C13.4619952,12.5064209 13.3882474,12.2999269 13.3033873,12.0979232 C13.251212,11.8833178 13.224031,11.6633983 13.2223859,11.4425476 C13.2206498,10.0161401 14.2560214,8.80006349 15.6644458,8.57427108 C17.0728702,8.34847867 18.436497,9.17995841 18.8807388,10.5354254 C19.3249807,11.8908924 18.7180403,13.3682074 17.44919,14.0198672 C17.2226468,14.164935 17.0932373,14.421993 17.1116405,14.690373 C17.1300437,14.9587531 17.2933306,15.1957404 17.5375552,15.308527 C19.3641548,15.9199756 20.5949314,17.6311999 20.5935199,19.5574225 C20.5935199,20.2422531 18.7525773,21.0301765 16.1089838,21.0301765 C13.4506627,21.015449 11.6097202,20.2790719 11.6097202,19.5426949 Z" id="Icon" fill="#9E9E9E" fill-rule="nonzero"></path>
        </g>
    </g>
</svg>