<svg height="480pt" viewBox="0 0 479 480" width="480pt" xmlns="http://www.w3.org/2000/svg"><path d="m100.578125 240c-44.925781-77.792969-58.671875-162.128906-43.582031-230-28.464844 7.109375-48.453125 32.660156-48.496094 62v368.222656c.011719 17.558594 14.25 31.78125 31.808594 31.777344h256.191406c35.347656 0 64-28.652344 64-64v-7.335938c-89.167969 12.742188-196-49.953124-259.921875-160.664062zm0 0" fill="#cff09e"/><path d="m408.5 8c26.507812 0 48 21.492188 48 48v32c0 8.835938-7.164062 16-16 16h-80v-48c0-26.507812 21.492188-48 48-48zm0 0" fill="#79bd9a"/><path d="m64.5 72.023438h32c4.417969 0 8 3.582031 8 8v32c0 4.417968-3.582031 8-8 8h-32c-4.417969 0-8-3.582032-8-8v-32c0-4.417969 3.582031-8 8-8zm0 0" fill="#a8dba8"/><path d="m64.5 168.023438h32c4.417969 0 8 3.582031 8 8v32c0 4.417968-3.582031 8-8 8h-32c-4.417969 0-8-3.582032-8-8v-32c0-4.417969 3.582031-8 8-8zm0 0" fill="#a8dba8"/><path d="m64.5 264.023438h32c4.417969 0 8 3.582031 8 8v32c0 4.417968-3.582031 8-8 8h-32c-4.417969 0-8-3.582032-8-8v-32c0-4.417969 3.582031-8 8-8zm0 0" fill="#79bd9a"/><path d="m64.5 360.023438h32c4.417969 0 8 3.582031 8 8v32c0 4.417968-3.582031 8-8 8h-32c-4.417969 0-8-3.582032-8-8v-32c0-4.417969 3.582031-8 8-8zm0 0" fill="#a8dba8"/><path d="m305.132812 383.894531c-1.292968 4.519531.65625 9.339844 4.726563 11.691407 4.070313 2.351562 9.21875 1.632812 12.488281-1.746094l40.296875-41.671875-41.601562-24zm0 0" fill="#a8dba8"/><path d="m321.074219 328.160156 88-152.421875 41.566406 24-88 152.421875zm0 0" fill="#cff09e"/><path d="m457.859375 139.246094c11.476563 6.628906 15.410156 21.308594 8.78125 32.785156l-16 27.714844-41.566406-24 16-27.714844c6.625-11.476562 21.304687-15.410156 32.785156-8.785156zm0 0" fill="#a8dba8"/><g fill="#3b8686"><path d="m96.5 64h-32c-8.835938 0-16 7.164062-16 16v32c0 8.835938 7.164062 16 16 16h32c8.835938 0 16-7.164062 16-16v-32c0-8.835938-7.164062-16-16-16zm-32 48v-32h32v32zm0 0"/><path d="m96.5 160h-32c-8.835938 0-16 7.164062-16 16v32c0 8.835938 7.164062 16 16 16h32c8.835938 0 16-7.164062 16-16v-32c0-8.835938-7.164062-16-16-16zm-32 48v-32h32v32zm0 0"/><path d="m96.5 256h-32c-8.835938 0-16 7.164062-16 16v32c0 8.835938 7.164062 16 16 16h32c8.835938 0 16-7.164062 16-16v-32c0-8.835938-7.164062-16-16-16zm-32 48v-32h32v32zm0 0"/><path d="m96.5 352h-32c-8.835938 0-16 7.164062-16 16v32c0 8.835938 7.164062 16 16 16h32c8.835938 0 16-7.164062 16-16v-32c0-8.835938-7.164062-16-16-16zm-32 48v-32h32v32zm0 0"/><path d="m144.5 128h104c4.417969 0 8-3.582031 8-8s-3.582031-8-8-8h-104c-4.417969 0-8 3.582031-8 8s3.582031 8 8 8zm0 0"/><path d="m144.5 224h24c4.417969 0 8-3.582031 8-8s-3.582031-8-8-8h-24c-4.417969 0-8 3.582031-8 8s3.582031 8 8 8zm0 0"/><path d="m240.5 400h-96c-4.417969 0-8 3.582031-8 8s3.582031 8 8 8h96c4.417969 0 8-3.582031 8-8s-3.582031-8-8-8zm0 0"/><path d="m256.5 304h-112c-4.417969 0-8 3.582031-8 8s3.582031 8 8 8h112c4.417969 0 8-3.582031 8-8s-3.582031-8-8-8zm0 0"/><path d="m224.5 176c8.835938 0 16 7.164062 16 16 0 4.417969 3.582031 8 8 8s8-3.582031 8-8c-.054688-14.546875-9.914062-27.226562-24-30.863281v-9.136719c0-4.417969-3.582031-8-8-8s-8 3.582031-8 8v9.136719c-15.585938 4.011719-25.753906 18.992187-23.71875 34.957031 2.03125 15.96875 15.625 27.925781 31.71875 27.90625 8.835938 0 16 7.164062 16 16s-7.164062 16-16 16-16-7.164062-16-16c0-4.417969-3.582031-8-8-8s-8 3.582031-8 8c.054688 14.546875 9.914062 27.226562 24 30.863281v9.136719c0 4.417969 3.582031 8 8 8s8-3.582031 8-8v-9.113281c15.632812-3.972657 25.851562-18.980469 23.816406-34.980469-2.035156-16.003906-15.6875-27.972656-31.816406-27.90625-8.835938 0-16-7.164062-16-16s7.164062-16 16-16zm0 0"/><path d="m320.5 216c0-4.417969-3.582031-8-8-8h-32c-4.417969 0-8 3.582031-8 8s3.582031 8 8 8h32c4.417969 0 8-3.582031 8-8zm0 0"/><path d="m468.5 200.800781-6.929688-4 12-20.800781c8.839844-15.308594 3.59375-34.878906-11.714843-43.714844-15.304688-8.835937-34.878907-3.59375-43.714844 11.714844l-12 20.800781-37.640625 65.207031v-118.007812h72c13.253906 0 24-10.746094 24-24v-32c-.035156-30.914062-25.085938-55.9648438-56-56h-336c-39.746094.046875-71.953125 32.253906-72 72v368.222656c.035156 21.964844 17.835938 39.753906 39.800781 39.777344h256.199219c39.746094-.042969 71.957031-32.253906 72-72v-50.480469c.753906-.648437 1.269531-1.535156 1.457031-2.511719l83.597657-144.367187 6.945312 4c3.824219 2.207031 5.136719 7.101563 2.929688 10.925781l-32 55.425782c-1.453126 2.476562-1.46875 5.539062-.039063 8.03125 1.429687 2.488281 4.085937 4.019531 6.957031 4.015624 2.871094-.007812 5.515625-1.550781 6.9375-4.046874l32-55.425782c6.613282-11.472656 2.683594-26.140625-8.785156-32.765625zm-36.496094-48.800781c4.550782-7.355469 14.121094-9.761719 21.609375-5.4375 7.488281 4.328125 10.183594 13.820312 6.085938 21.4375l-12 20.800781-27.710938-16zm16.496094-96v32c0 4.417969-3.582031 8-8 8h-72v-40c0-22.089844 17.910156-40 40-40s40 17.910156 40 40zm-152 408h-256.199219c-13.128906-.011719-23.773437-10.644531-23.800781-23.777344v-368.222656c.035156-30.914062 25.085938-55.964844 56-56h296.847656c-.078125.070312-.136718.160156-.214844.230469-.65625.648437-1.265624 1.355469-1.890624 2.042969-.621094.6875-1.207032 1.269531-1.765626 1.941406-.5625.671875-1.167968 1.527344-1.753906 2.296875-.582031.769531-1.03125 1.320312-1.503906 2.015625-.566406.800781-1.0625 1.703125-1.597656 2.5625-.425782.695312-.875 1.367187-1.265625 2.078125-.496094.894531-.917969 1.847656-1.359375 2.777343-.34375.710938-.71875 1.40625-1.03125 2.144532-.425782.972656-.761719 2-1.121094 3.007812-.265625.71875-.558594 1.421875-.800781 2.160156-.34375 1.09375-.597657 2.230469-.878907 3.359376-.167968.679687-.382812 1.34375-.527343 2.03125-.265625 1.289062-.433594 2.597656-.609375 3.910156-.070313.570312-.191406 1.113281-.253906 1.679687-.1875 1.914063-.28125 3.839844-.273438 5.761719v201.726562l-38.398438 66.441407c-.582031 1.042969-.917968 2.203125-.984374 3.390625l-15.722657 54.136718c-1.488281 5.171876-.609375 10.738282 2.402344 15.199219l-4.898437 8.554688c-2.207032 3.828125-.894532 8.722656 2.933593 10.929687 3.828125 2.210938 8.722657.898438 10.933594-2.929687l4.980469-8.640625c.410156 0 .800781.160156 1.21875.160156 4.945312-.007812 9.679687-2.03125 13.101562-5.601562l24.433594-25.207032v33.839844c-.035156 30.914062-25.085938 55.964844-56 56zm20.089844-75.742188c-.714844.738282-1.839844.898438-2.730469.382813-.894531-.519531-1.320313-1.574219-1.039063-2.570313l13.128907-45.878906 23.816406 13.753906zm123.109375-185.585937-80 138.558594-27.710938-16 80-138.550781 6.925781 4 13.859376 8zm0 0"/></g></svg>