<?xml version="1.0" encoding="UTF-8"?>
<svg width="32px" height="32px" viewBox="0 0 32 32" version="1.1" xmlns="http://www.w3.org/2000/svg" xmlns:xlink="http://www.w3.org/1999/xlink">
    <!-- Generator: Sketch 43.1 (39012) - http://www.bohemiancoding.com/sketch -->
    <title>Flag_TUR</title>
    <desc>Created with Sketch.</desc>
    <defs></defs>
    <g id="Icon" stroke="none" stroke-width="1" fill="none" fill-rule="evenodd">
        <g id="Flag_TUR">
            <rect id="Placeholder" x="0" y="0" width="32" height="32"></rect>
            <g transform="translate(2.000000, 6.000000)" fill-rule="nonzero">
                <rect id="Rectangle-path" fill="#FF0000" x="0" y="0" width="28" height="20"></rect>
                <path d="M12,5 C9.25,5 7,7.25 7,10 C7,12.75 9.25,15 12,15 C13.1,15 14.1,14.65 14.9,14.05 C13.8,15.25 12.25,16 10.5,16 C7.2,16 4.5,13.3 4.5,10 C4.5,6.7 7.2,4 10.5,4 C12.25,4 13.8,4.75 14.9,5.95 C14.1,5.35 13.1,5 12,5 Z" id="Shape" fill="#FFFFFF"></path>
                <circle id="Oval" fill="#FFFFFF" cx="17" cy="10" r="1.5"></circle>
            </g>
        </g>
    </g>
</svg>