<?xml version="1.0" encoding="UTF-8"?>
<svg width="32px" height="32px" viewBox="0 0 32 32" version="1.1" xmlns="http://www.w3.org/2000/svg" xmlns:xlink="http://www.w3.org/1999/xlink">
    <!-- Generator: Sketch 43.1 (39012) - http://www.bohemiancoding.com/sketch -->
    <title>Flag_KOR</title>
    <desc>Created with Sketch.</desc>
    <defs>
        <polygon id="path-1" points="0 20 28 20 28 0 0 0"></polygon>
    </defs>
    <g id="Icon" stroke="none" stroke-width="1" fill="none" fill-rule="evenodd">
        <g id="Flag_KOR">
            <rect id="Placeholder" x="0" y="0" width="32" height="32"></rect>
            <g transform="translate(2.000000, 6.000000)">
                <g id="Fill-1">
                    <use fill="#FFFFFF" fill-rule="evenodd" xlink:href="#path-1"></use>
                    <path stroke="#C6C6C6" stroke-width="1" d="M0.5,19.5 L0.5,0.5 L27.5,0.5 L27.5,19.5 L0.5,19.5 Z"></path>
                </g>
                <polygon id="Fill-2" fill="#3E3E3E" points="21.3999 2.1499 23.8999 4.6499 22.1499 6.3999 19.6499 3.8999"></polygon>
                <polygon id="Fill-3" fill="#3E3E3E" points="6.6001 2.1499 4.1001 4.6499 5.8501 6.3999 8.3501 3.8999"></polygon>
                <polygon id="Fill-4" fill="#3E3E3E" points="21.3999 17.8501 23.8999 15.3501 22.1499 13.6001 19.6499 16.1001"></polygon>
                <polygon id="Fill-5" fill="#3E3E3E" points="6.6001 17.8501 4.1001 15.3501 5.8501 13.6001 8.3501 16.1001"></polygon>
                <g id="Group-12" transform="translate(8.000000, 4.000000)">
                    <path d="M6,0 C9.3,0 12,2.7 12,6 C12,6.05 12,6 12,6 L0,6 C0,6 0,6.05 0,6 C0,2.7 2.7,0 6,0" id="Fill-6" fill="#FF0000"></path>
                    <path d="M6,12 C2.7,12 0,9.3 0,6 L6,6 C6,4.35 7.35,3 9,3 C10.65,3 12,4.35 12,6 C12,9.3 9.3,12 6,12" id="Fill-8" fill="#3B6AC3"></path>
                    <path d="M3,3 C4.6565,3 6,4.3435 6,6 C6,7.6565 4.6565,9 3,9 C1.3435,9 0,7.6565 0,6 C0,4.3435 1.3435,3 3,3" id="Fill-10" fill="#FF0000"></path>
                </g>
            </g>
        </g>
    </g>
</svg>