<?xml version="1.0" encoding="UTF-8"?>
<svg width="32px" height="32px" viewBox="0 0 32 32" version="1.1" xmlns="http://www.w3.org/2000/svg" xmlns:xlink="http://www.w3.org/1999/xlink">
    <!-- Generator: Sketch 43.1 (39012) - http://www.bohemiancoding.com/sketch -->
    <title>Flag_CHN</title>
    <desc>Created with Sketch.</desc>
    <defs></defs>
    <g id="Icon" stroke="none" stroke-width="1" fill="none" fill-rule="evenodd">
        <g id="Flag_CHN">
            <rect id="Placeholder" x="0" y="0" width="32" height="32"></rect>
            <g transform="translate(2.000000, 6.000000)">
                <polygon id="Fill-1" fill="#FF0000" points="0 20 28 20 28 0 0 0"></polygon>
                <g id="Group-6" transform="translate(3.500000, 2.500000)" fill="#FFD200">
                    <path d="M7.5,6.5 C7.5,5.95 7.95,5.5 8.5,5.5 C9.05,5.5 9.5,5.95 9.5,6.5 C9.5,7.05 9.05,7.5 8.5,7.5 C7.95,7.5 7.5,7.05 7.5,6.5 M7,8 C7.55,8 8,8.45 8,9 C8,9.55 7.55,10 7,10 C6.45,10 6,9.55 6,9 C6,8.45 6.45,8 7,8 M7,2 C6.45,2 6,1.55 6,1 C6,0.45 6.45,0 7,0 C7.55,0 8,0.45 8,1 C8,1.55 7.55,2 7,2 M8.5,4.5 C7.95,4.5 7.5,4.05 7.5,3.5 C7.5,2.95 7.95,2.5 8.5,2.5 C9.05,2.5 9.5,2.95 9.5,3.5 C9.5,4.05 9.05,4.5 8.5,4.5" id="Fill-2"></path>
                    <path d="M2.5,2.5 C3.8805,2.5 5,3.6195 5,5 C5,6.3805 3.8805,7.5 2.5,7.5 C1.1195,7.5 0,6.3805 0,5 C0,3.6195 1.1195,2.5 2.5,2.5" id="Fill-4"></path>
                </g>
            </g>
        </g>
    </g>
</svg>