<?xml version="1.0" encoding="UTF-8"?>
<svg width="35px" height="32px" viewBox="0 0 35 32" version="1.1" xmlns="http://www.w3.org/2000/svg" xmlns:xlink="http://www.w3.org/1999/xlink">
    <!-- Generator: Sketch 43.1 (39012) - http://www.bohemiancoding.com/sketch -->
    <title>Icon</title>
    <desc>Created with Sketch.</desc>
    <defs></defs>
    <g id="Page-1" stroke="none" stroke-width="1" fill="none" fill-rule="evenodd">
        <g id="Walkin" transform="translate(-240.000000, -450.000000)" fill="#FFFFFF">
            <g id="Scheduler">
                <g id="Hotel" transform="translate(207.000000, 420.000000)">
                    <g id="Icon" transform="translate(33.000000, 30.000000)">
                        <path d="M1,31 L7,31 L7,16 L1,16 L1,31 Z M8,5 L27,5 L27,31 L8.00190076,31 L8.00190076,15.1026824 L8,15.1026824 L8,5 Z M28,16 L34,16.0012982 L34,31 C34,31 28,31 28,31 L28,16 Z M12,4 L22,4 L22,1 L12,1 L12,4 Z M35,32 L35,15 L28,15 L28,4 L23,4 L23,0 L11,0 L11,4 L7,4 L7,15 L0,15 L0,32 L35,32 Z" id="Fill-1"></path>
                        <polygon id="Fill-3" points="13 12 15 12 15 9 13 9"></polygon>
                        <polygon id="Fill-4" points="13 19 15 19 15 16 13 16"></polygon>
                        <polygon id="Fill-5" points="13 26 15 26 15 23 13 23"></polygon>
                        <polygon id="Fill-6" points="20 12 22 12 22 9 20 9"></polygon>
                        <polygon id="Fill-7" points="20 19 22 19 22 16 20 16"></polygon>
                        <polygon id="Fill-8" points="20 26 22 26 22 23 20 23"></polygon>
                        <polygon id="Fill-9" points="3 22 5 22 5 19 3 19"></polygon>
                        <polygon id="Fill-10" points="3 28 5 28 5 25 3 25"></polygon>
                        <polygon id="Fill-11" points="30 22 32 22 32 19 30 19"></polygon>
                        <polygon id="Fill-12" points="30 28 32 28 32 25 30 25"></polygon>
                    </g>
                </g>
            </g>
        </g>
    </g>
</svg>