<?xml version="1.0" encoding="UTF-8"?>
<svg width="32px" height="32px" viewBox="0 0 32 32" version="1.1" xmlns="http://www.w3.org/2000/svg" xmlns:xlink="http://www.w3.org/1999/xlink">
    <!-- Generator: Sketch 43.1 (39012) - http://www.bohemiancoding.com/sketch -->
    <title>Info</title>
    <desc>Created with Sketch.</desc>
    <defs></defs>
    <g id="Icon" stroke="none" stroke-width="1" fill="none" fill-rule="evenodd">
        <g id="Info">
            <rect id="Placeholder" x="0" y="0" width="32" height="32"></rect>
            <path d="M25.6108192,2 L6.42277593,2 C4.00725985,2 2,4.00725985 2,6.42277593 L2,31.4965133 L6.42277593,27.0737374 L25.5767979,27.0737374 C27.9923139,27.0737374 29.9995738,25.0664776 29.9995738,22.6509615 L29.9995738,6.42277593 C30.0335951,3.97323849 28.0263353,2 25.6108192,2 Z M17.4797158,20.4055521 L14.519858,20.4055521 L14.519858,12.3084701 L17.4797158,12.3084701 L17.4797158,20.4055521 Z M16.0167976,10.0970821 C15.2002851,10.0970821 14.5538794,9.41665502 14.5538794,8.6341639 C14.5538794,7.85167277 15.2343064,7.1712457 16.0167976,7.1712457 C16.7992887,7.1712457 17.4797158,7.85167277 17.4797158,8.6341639 C17.4797158,9.41665502 16.83331,10.0970821 16.0167976,10.0970821 Z" id="Icon" fill="#F44336" fill-rule="nonzero"></path>
        </g>
    </g>
</svg>