<?xml version="1.0" ?><!DOCTYPE svg  PUBLIC '-//W3C//DTD SVG 1.1//EN'  'http://www.w3.org/Graphics/SVG/1.1/DTD/svg11.dtd'><svg height="512px" style="enable-background:new 0 0 512 512;" version="1.1" viewBox="0 0 512 512" width="512px" xml:space="preserve" xmlns="http://www.w3.org/2000/svg" xmlns:xlink="http://www.w3.org/1999/xlink"><g id="lock__x2C__unlock__x2C__security__x2C__safe___x2C_"><g><path d="M274.247,312.598L274.247,312.598c6.81-5.433,11.239-13.433,11.239-22.364    c0-16.206-13.082-29.259-29.544-29.259c-16.207,0-29.265,13.053-29.265,29.259c0,8.932,4.407,16.932,10.867,22.364l-10.867,65.805    h58.809L274.247,312.598z" style="fill:#040404;"/><linearGradient gradientUnits="userSpaceOnUse" id="SVGID_1_" x1="109.2822" x2="402.7178" y1="334.2666" y2="334.2666"><stop offset="0" style="stop-color:#D59632"/><stop offset="0.1301" style="stop-color:#DFB434"/><stop offset="0.2959" style="stop-color:#EEDF36"/><stop offset="0.8265" style="stop-color:#EEDF36"/><stop offset="0.9038" style="stop-color:#EDDD36"/><stop offset="0.9351" style="stop-color:#EBD636"/><stop offset="0.9581" style="stop-color:#E7CA35"/><stop offset="0.977" style="stop-color:#E1B834"/><stop offset="0.9932" style="stop-color:#D9A233"/><stop offset="1" style="stop-color:#D59632"/></linearGradient><path d="M255.942,496C136.318,461.113,84.946,322.156,120.205,209.803    c83.831-49.692,187.926-49.692,271.474,0C426.819,321.971,377.131,460.671,255.942,496L255.942,496z" style="fill:url(#SVGID_1_);"/><path d="M138.416,174.929v-41.227C138.416,68.725,191.163,16,255.942,16    C321,16,373.725,68.725,373.725,133.702v41.227c-18.959-8.743-38.826-15.098-58.974-19.331v-21.896    c0-32.494-26.045-58.717-58.809-58.717c-32.482,0-58.716,26.223-58.716,58.717v21.896    C176.985,159.831,157.375,166.186,138.416,174.929L138.416,174.929z" style="fill:#38383A;"/><path d="M255.942,260.975c-16.207,0-29.265,13.053-29.265,29.259    c0,8.932,4.407,16.932,10.867,22.364l-10.867,65.805h58.809l-11.239-65.805c6.81-5.433,11.239-13.433,11.239-22.364    C285.486,274.027,272.404,260.975,255.942,260.975L255.942,260.975z" style="fill-rule:evenodd;clip-rule:evenodd;fill:#38383A;"/></g></g><g id="Layer_1"/></svg>