<?xml version="1.0" encoding="UTF-8"?>
<svg width="32px" height="32px" viewBox="0 0 32 32" version="1.1" xmlns="http://www.w3.org/2000/svg" xmlns:xlink="http://www.w3.org/1999/xlink">
    <!-- Generator: Sketch 43.1 (39012) - http://www.bohemiancoding.com/sketch -->
    <title>Logout</title>
    <desc>Created with Sketch.</desc>
    <defs></defs>
    <g id="Icon" stroke="none" stroke-width="1" fill="none" fill-rule="evenodd">
        <g id="Logout">
            <rect id="Placeholder" x="0" y="0" width="32" height="32"></rect>
            <path d="M16,4 L16,4 C9.37234375,4 4,9.37234375 4,16 L4,16 C4,22.6276563 9.37234375,28 16,28 L16,28 C22.6271875,28 28,22.6276563 28,16 L28,16 C28,9.37234375 22.6276563,4 16,4 Z M15.0625,9.900625 C15.0643783,9.5186372 15.2985093,9.17623304 15.653789,9.03589598 C16.0090688,8.89555892 16.4139915,8.98553412 16.6764062,9.263125 C16.8385105,9.42209021 16.9301817,9.63936629 16.9309375,9.86640625 L16.9309375,10.28125 C16.9309375,12.37 16.9351562,14.5285938 16.9309375,16.6529688 C16.9309375,17.138125 16.5020313,17.546875 15.9971875,17.546875 L15.9971875,17.546875 C15.4960938,17.546875 15.0704687,17.1376562 15.0671875,16.6501563 C15.0620312,15.8532813 15.0629687,15.0465625 15.064375,14.26375 L15.064375,13.2596875 L15.064375,13 L15.064375,13 L15.064375,12.3010938 C15.0625,11.5182813 15.0596875,10.6960938 15.0625,9.900625 Z M17.2253125,22.9121875 C15.4820873,23.2431914 13.6788549,22.8644812 12.2160713,21.8601596 C10.7532877,20.8558381 9.75204198,19.3090429 9.4346875,17.5632812 C9.03671875,15.3221875 9.64515625,13.3332812 11.2421875,11.6523437 C11.4216353,11.4569257 11.6739237,11.3444394 11.9392188,11.3415625 C12.1756884,11.3427227 12.4026343,11.4348776 12.5729688,11.5989062 C12.7577756,11.7696149 12.8662152,12.0074388 12.8739063,12.2589062 C12.8782308,12.5132431 12.7798879,12.7585933 12.6010938,12.9395312 C11.8632813,13.7059375 11.4090625,14.6045312 11.250625,15.6114062 C10.8839166,18.2390735 12.7167858,20.6664947 15.3444531,21.0332031 C17.9721204,21.3999116 20.3995416,19.5670423 20.76625,16.939375 C20.9439063,15.4304687 20.498125,14.1039062 19.4420313,12.99625 C19.1485938,12.6882812 19.0609375,12.3760937 19.1664063,12.0142187 C19.2587257,11.6986997 19.5106142,11.4552657 19.8291002,11.373768 C20.1475861,11.2922702 20.4854431,11.3847934 20.7179688,11.6171875 C21.8645313,12.7764062 22.5151563,14.183125 22.6515625,15.7984375 C22.6623438,15.925 22.6698438,16.0553125 22.676875,16.181875 C22.6803125,16.2396875 22.68375,16.2975 22.6871875,16.3553125 C22.6609375,19.605625 20.4175,22.3014062 17.2253125,22.9121875 Z" id="Icon" fill-opacity="0.33" fill="#000000" fill-rule="nonzero"></path>
        </g>
    </g>
</svg>