<?xml version="1.0" encoding="UTF-8"?>
<svg width="15px" height="18px" viewBox="0 0 15 18" version="1.1" xmlns="http://www.w3.org/2000/svg" xmlns:xlink="http://www.w3.org/1999/xlink">
    <!-- Generator: Sketch 43.1 (39012) - http://www.bohemiancoding.com/sketch -->
    <title>Icon/Logs</title>
    <desc>Created with Sketch.</desc>
    <defs></defs>
    <g id="Page-1" stroke="none" stroke-width="1" fill="none" fill-rule="evenodd">
        <g id="Dormitory-CRM" transform="translate(-761.000000, -24.000000)">
            <g id="Header">
                <g id="Button" transform="translate(636.000000, 21.000000)">
                    <g id="Icon/Logs" transform="translate(120.000000, 0.000000)">
                        <rect id="Placeholder" x="0" y="0" width="24" height="24"></rect>
                        <path d="M5,3 L5,21 L20,21 L20,8 L15,3 L5,3 Z M8,14 L8,13 L17,13 L17,14 L8,14 Z M8,17 L8,16 L17,16 L17,17 L8,17 Z M19,9 L19,20 L6,20 L6,4 L14,4 L14,9 L14.5,9 L19,9 Z M18.5856375,8 L15,8 L15,4.41332949 L18.5856375,8 Z" id="Icon" fill="#000000" fill-rule="evenodd"></path>
                    </g>
                </g>
            </g>
        </g>
    </g>
</svg>