<?xml version="1.0" ?><!DOCTYPE svg  PUBLIC '-//W3C//DTD SVG 1.1//EN'  'http://www.w3.org/Graphics/SVG/1.1/DTD/svg11.dtd'><svg enable-background="new 0 0 512 512" height="512px" id="Calque_1" version="1.1" viewBox="0 0 512 512" width="512px" xml:space="preserve" xmlns="http://www.w3.org/2000/svg" xmlns:xlink="http://www.w3.org/1999/xlink"><g><g id="XMLID_1_"><g><path d="M456.74,366.83v65.74c0,6.83-5.54,12.37-12.37,12.37h-92.18v-78.11H456.74z" fill="#FFC035"/><rect fill="#526471" height="35.06" width="104.55" x="352.19" y="331.77"/><path d="M456.74,314.34v17.43H352.19v-29.8h92.18C451.2,301.97,456.74,307.51,456.74,314.34z" fill="#FFC035"/><path d="M425.03,106.14v91.76c0,15.06-12.21,27.27-27.27,27.27s-27.27-12.21-27.27-27.27l0.01-29.19v-62.57     H425.03z" fill="#ECEFF0"/><path d="M405.01,224.19c-2.31,0.64-4.74,0.98-7.25,0.98c-15.06,0-27.27-12.21-27.27-27.27l0.01-29.19v-62.57H385     v62.57l-0.01,29.19C384.99,210.45,393.47,221.02,405.01,224.19z" opacity="0.2"/><path d="M370.5,106.14v62.57l-0.01,29.19c0,15.06,12.21,27.27,27.27,27.27h-45.57v-44.98     c0-7.54-5.55-13.64-12.37-13.64h-23.87v-3.43V50.79c0-15.06,12.21-27.27,27.27-27.27c15.06,0,27.27,12.21,27.27,27.27h0.01     V106.14z" fill="#A7B7C1"/><path d="M350.03,24.38c-11.76,3.03-20.45,13.7-20.45,26.41v115.76h-13.63V50.79c0-15.06,12.21-27.27,27.27-27.27     C345.57,23.52,347.85,23.82,350.03,24.38z" opacity="0.2"/><path d="M365.82,180.19v44.98h-13.63v-44.98c0-7.54-5.55-13.64-12.37-13.64h13.63     C360.27,166.55,365.82,172.65,365.82,180.19z" opacity="0.2"/><path d="M352.19,444.94v30.17c0,7.53-5.55,13.64-12.37,13.64H67.63c-6.83,0-12.37-6.12-12.37-13.64V180.19     c0-7.54,5.54-13.64,12.37-13.64h26.48v19.05h-7.46c-2.64,0-5.03,1.04-6.76,2.72c-1.72,1.68-2.79,4-2.79,6.58     c0,5.13,4.27,9.3,9.55,9.3h7.46h221.84h7.45c5.28,0,9.56-4.17,9.56-9.3c0-5.15-4.28-9.3-9.56-9.3h-7.45v-19.05h23.87     c6.82,0,12.37,6.1,12.37,13.64v44.98v76.8v29.8v35.06V444.94z M332.1,255.75v-17.53c0-6.83-5.54-12.37-12.38-12.37H88.6     c-6.83,0-12.37,5.54-12.37,12.37v17.53c0,6.83,5.54,12.37,12.37,12.37h231.13C326.56,268.12,332.1,262.58,332.1,255.75z      M328.32,453.7v-17.53c0-6.83-5.54-12.37-12.37-12.37h-19.16c-6.84,0-12.38,5.54-12.38,12.37v17.53     c0,6.83,5.54,12.37,12.38,12.37h19.16C322.78,466.07,328.32,460.53,328.32,453.7z M328.32,387.72v-17.53     c0-6.83-5.54-12.37-12.37-12.37h-19.16c-6.84,0-12.38,5.54-12.38,12.37v17.53c0,6.83,5.54,12.37,12.38,12.37h19.16     C322.78,400.09,328.32,394.55,328.32,387.72z M328.32,321.73v-17.52c0-6.84-5.54-12.38-12.37-12.38h-19.16     c-6.84,0-12.38,5.54-12.38,12.38v17.52c0,6.84,5.54,12.37,12.38,12.37h19.16C322.78,334.1,328.32,328.57,328.32,321.73z      M260.18,453.7v-17.53c0-6.83-5.53-12.37-12.37-12.37h-19.16c-6.83,0-12.37,5.54-12.37,12.37v17.53     c0,6.83,5.54,12.37,12.37,12.37h19.16C254.65,466.07,260.18,460.53,260.18,453.7z M260.18,387.72v-17.53     c0-6.83-5.53-12.37-12.37-12.37h-19.16c-6.83,0-12.37,5.54-12.37,12.37v17.53c0,6.83,5.54,12.37,12.37,12.37h19.16     C254.65,400.09,260.18,394.55,260.18,387.72z M260.18,321.73v-17.52c0-6.84-5.53-12.38-12.37-12.38h-19.16     c-6.83,0-12.37,5.54-12.37,12.38v17.52c0,6.84,5.54,12.37,12.37,12.37h19.16C254.65,334.1,260.18,328.57,260.18,321.73z      M192.05,453.7v-17.53c0-6.83-5.54-12.37-12.37-12.37h-19.16c-6.84,0-12.37,5.54-12.37,12.37v17.53     c0,6.83,5.53,12.37,12.37,12.37h19.16C186.51,466.07,192.05,460.53,192.05,453.7z M192.05,387.72v-17.53     c0-6.83-5.54-12.37-12.37-12.37h-19.16c-6.84,0-12.37,5.54-12.37,12.37v17.53c0,6.83,5.53,12.37,12.37,12.37h19.16     C186.51,400.09,192.05,394.55,192.05,387.72z M192.05,321.73v-17.52c0-6.84-5.54-12.38-12.37-12.38h-19.16     c-6.84,0-12.37,5.54-12.37,12.38v17.52c0,6.84,5.53,12.37,12.37,12.37h19.16C186.51,334.1,192.05,328.57,192.05,321.73z      M123.92,453.7v-17.53c0-6.83-5.54-12.37-12.38-12.37H92.38c-6.83,0-12.37,5.54-12.37,12.37v17.53c0,6.83,5.54,12.37,12.37,12.37     h19.16C118.38,466.07,123.92,460.53,123.92,453.7z M123.92,387.72v-17.53c0-6.83-5.54-12.37-12.38-12.37H92.38     c-6.83,0-12.37,5.54-12.37,12.37v17.53c0,6.83,5.54,12.37,12.37,12.37h19.16C118.38,400.09,123.92,394.55,123.92,387.72z      M123.92,321.73v-17.52c0-6.84-5.54-12.38-12.38-12.38H92.38c-6.83,0-12.37,5.54-12.37,12.38v17.52     c0,6.84,5.54,12.37,12.37,12.37h19.16C118.38,334.1,123.92,328.57,123.92,321.73z" fill="#303C44"/><path d="M339.82,480.25H67.63c-6.83,0-12.37-6.12-12.37-13.64v8.5c0,7.52,5.54,13.64,12.37,13.64h272.19     c6.82,0,12.37-6.11,12.37-13.64v-8.5C352.19,474.14,346.64,480.25,339.82,480.25z" opacity="0.2"/><path d="M343.22,23.25v0.27c-15.06,0-27.27,12.21-27.27,27.27V204.2H94.11V50.51     c0.01-15.06,12.21-27.26,27.27-27.26v-0.01h194.56l0.01,0.01H343.22z" fill="#ECEFF0"/><path d="M332.1,238.22v17.53c0,6.83-5.54,12.37-12.37,12.37H88.6c-6.83,0-12.37-5.54-12.37-12.37v-17.53     c0-6.83,5.54-12.37,12.37-12.37h231.12C326.56,225.85,332.1,231.39,332.1,238.22z" fill="#ECEFF0"/><path d="M332.96,194.9c0,5.13-4.28,9.3-9.56,9.3h-7.45v-18.6h7.45C328.68,185.6,332.96,189.75,332.96,194.9z" fill="#A7B7C1"/><path d="M328.32,436.17v17.53c0,6.83-5.54,12.37-12.37,12.37h-19.16c-6.84,0-12.38-5.54-12.38-12.37v-17.53     c0-6.83,5.54-12.37,12.38-12.37h19.16C322.78,423.8,328.32,429.34,328.32,436.17z" fill="#77D379"/><path d="M328.32,370.19v17.53c0,6.83-5.54,12.37-12.37,12.37h-19.16c-6.84,0-12.38-5.54-12.38-12.37v-17.53     c0-6.83,5.54-12.37,12.38-12.37h19.16C322.78,357.82,328.32,363.36,328.32,370.19z" fill="#FFC035"/><path d="M328.32,304.21v17.52c0,6.84-5.54,12.37-12.37,12.37h-19.16c-6.84,0-12.38-5.53-12.38-12.37v-17.52     c0-6.84,5.54-12.38,12.38-12.38h19.16C322.78,291.83,328.32,297.37,328.32,304.21z" fill="#DD6475"/><path d="M260.18,436.17v17.53c0,6.83-5.53,12.37-12.37,12.37h-19.16c-6.83,0-12.37-5.54-12.37-12.37v-17.53     c0-6.83,5.54-12.37,12.37-12.37h19.16C254.65,423.8,260.18,429.34,260.18,436.17z" fill="#A7B7C1"/><path d="M260.18,370.19v17.53c0,6.83-5.53,12.37-12.37,12.37h-19.16c-6.83,0-12.37-5.54-12.37-12.37v-17.53     c0-6.83,5.54-12.37,12.37-12.37h19.16C254.65,357.82,260.18,363.36,260.18,370.19z" fill="#A7B7C1"/><path d="M260.18,304.21v17.52c0,6.84-5.53,12.37-12.37,12.37h-19.16c-6.83,0-12.37-5.53-12.37-12.37v-17.52     c0-6.84,5.54-12.38,12.37-12.38h19.16C254.65,291.83,260.18,297.37,260.18,304.21z" fill="#A7B7C1"/><path d="M192.05,436.17v17.53c0,6.83-5.54,12.37-12.37,12.37h-19.16c-6.84,0-12.37-5.54-12.37-12.37v-17.53     c0-6.83,5.53-12.37,12.37-12.37h19.16C186.51,423.8,192.05,429.34,192.05,436.17z" fill="#A7B7C1"/><path d="M192.05,370.19v17.53c0,6.83-5.54,12.37-12.37,12.37h-19.16c-6.84,0-12.37-5.54-12.37-12.37v-17.53     c0-6.83,5.53-12.37,12.37-12.37h19.16C186.51,357.82,192.05,363.36,192.05,370.19z" fill="#A7B7C1"/><path d="M192.05,304.21v17.52c0,6.84-5.54,12.37-12.37,12.37h-19.16c-6.84,0-12.37-5.53-12.37-12.37v-17.52     c0-6.84,5.53-12.38,12.37-12.38h19.16C186.51,291.83,192.05,297.37,192.05,304.21z" fill="#A7B7C1"/><path d="M123.92,436.17v17.53c0,6.83-5.54,12.37-12.38,12.37H92.38c-6.83,0-12.37-5.54-12.37-12.37v-17.53     c0-6.83,5.54-12.37,12.37-12.37h19.16C118.38,423.8,123.92,429.34,123.92,436.17z" fill="#A7B7C1"/><path d="M123.92,370.19v17.53c0,6.83-5.54,12.37-12.38,12.37H92.38c-6.83,0-12.37-5.54-12.37-12.37v-17.53     c0-6.83,5.54-12.37,12.37-12.37h19.16C118.38,357.82,123.92,363.36,123.92,370.19z" fill="#A7B7C1"/><path d="M123.92,304.21v17.52c0,6.84-5.54,12.37-12.38,12.37H92.38c-6.83,0-12.37-5.53-12.37-12.37v-17.52     c0-6.84,5.54-12.38,12.37-12.38h19.16C118.38,291.83,123.92,297.37,123.92,304.21z" fill="#A7B7C1"/><path d="M123.92,316.73v5c0,6.84-5.54,12.37-12.38,12.37H92.38c-6.83,0-12.37-5.53-12.37-12.37v-5     c0,6.84,5.54,12.37,12.37,12.37h19.16C118.38,329.1,123.92,323.57,123.92,316.73z" opacity="0.2"/><path d="M192.055,316.73v5c0,6.84-5.54,12.37-12.38,12.37h-19.16c-6.83,0-12.37-5.53-12.37-12.37v-5     c0,6.84,5.54,12.37,12.37,12.37h19.16C186.515,329.1,192.055,323.57,192.055,316.73z" opacity="0.2"/><path d="M260.19,316.73v5c0,6.84-5.54,12.37-12.38,12.37h-19.16c-6.83,0-12.37-5.53-12.37-12.37v-5     c0,6.84,5.54,12.37,12.37,12.37h19.16C254.65,329.1,260.19,323.57,260.19,316.73z" opacity="0.2"/><path d="M328.325,316.73v5c0,6.84-5.54,12.37-12.38,12.37h-19.16c-6.83,0-12.37-5.53-12.37-12.37v-5     c0,6.84,5.54,12.37,12.37,12.37h19.16C322.785,329.1,328.325,323.57,328.325,316.73z" opacity="0.2"/><path d="M123.92,382.72v5c0,6.84-5.54,12.37-12.38,12.37H92.38c-6.83,0-12.37-5.53-12.37-12.37v-5     c0,6.84,5.54,12.37,12.37,12.37h19.16C118.38,395.09,123.92,389.56,123.92,382.72z" opacity="0.2"/><path d="M192.055,382.72v5c0,6.84-5.54,12.37-12.38,12.37h-19.16c-6.83,0-12.37-5.53-12.37-12.37v-5     c0,6.84,5.54,12.37,12.37,12.37h19.16C186.515,395.09,192.055,389.56,192.055,382.72z" opacity="0.2"/><path d="M260.19,382.72v5c0,6.84-5.54,12.37-12.38,12.37h-19.16c-6.83,0-12.37-5.53-12.37-12.37v-5     c0,6.84,5.54,12.37,12.37,12.37h19.16C254.65,395.09,260.19,389.56,260.19,382.72z" opacity="0.2"/><path d="M328.325,382.72v5c0,6.84-5.54,12.37-12.38,12.37h-19.16c-6.83,0-12.37-5.53-12.37-12.37v-5     c0,6.84,5.54,12.37,12.37,12.37h19.16C322.785,395.09,328.325,389.56,328.325,382.72z" opacity="0.2"/><path d="M123.92,448.71v5c0,6.84-5.54,12.37-12.38,12.37H92.38c-6.83,0-12.37-5.53-12.37-12.37v-5     c0,6.84,5.54,12.37,12.37,12.37h19.16C118.38,461.08,123.92,455.55,123.92,448.71z" opacity="0.2"/><path d="M192.055,448.71v5c0,6.84-5.54,12.37-12.38,12.37h-19.16c-6.83,0-12.37-5.53-12.37-12.37v-5     c0,6.84,5.54,12.37,12.37,12.37h19.16C186.515,461.08,192.055,455.55,192.055,448.71z" opacity="0.2"/><path d="M260.19,448.71v5c0,6.84-5.54,12.37-12.38,12.37h-19.16c-6.83,0-12.37-5.53-12.37-12.37v-5     c0,6.84,5.54,12.37,12.37,12.37h19.16C254.65,461.08,260.19,455.55,260.19,448.71z" opacity="0.2"/><path d="M328.325,448.71v5c0,6.84-5.54,12.37-12.38,12.37h-19.16c-6.83,0-12.37-5.53-12.37-12.37v-5     c0,6.84,5.54,12.37,12.37,12.37h19.16C322.785,461.08,328.325,455.55,328.325,448.71z" opacity="0.2"/><path d="M94.11,185.6v18.6h-7.46c-5.28,0-9.55-4.17-9.55-9.3c0-2.58,1.07-4.9,2.79-6.58     c1.73-1.68,4.12-2.72,6.76-2.72H94.11z" fill="#A7B7C1"/></g><g><path d="M94.11,50.51c0.01-15.06,12.21-27.26,27.27-27.26" fill="none"/><line fill="none" x1="315.94" x2="121.38" y1="23.24" y2="23.24"/><polyline fill="none" points="94.11,50.51 94.11,50.52 94.11,163.12 94.11,166.55 94.11,185.6 94.11,204.2    "/><polyline fill="none" points="315.95,50.79 315.95,163.12 315.95,166.55 315.95,185.6 315.95,204.2    "/><path d="M315.95,50.79c0-15.06,12.21-27.27,27.27-27.27c15.06,0,27.27,12.21,27.27,27.27" fill="none"/><path d="M425.03,197.9c0,15.06-12.21,27.27-27.27,27.27s-27.27-12.21-27.27-27.27l0.01-29.19v-62.57V50.79" fill="none"/><line fill="none" x1="315.95" x2="343.22" y1="23.25" y2="23.25"/><line fill="none" x1="425.03" x2="425.03" y1="197.9" y2="106.14"/><polyline fill="none" points="425.03,106.14 370.5,106.14 370.49,106.14    "/><g><g><path d="M242.66,77.15H167.4c-2.209,0-4-1.791-4-4s1.791-4,4-4h75.26c2.209,0,4,1.791,4,4       S244.869,77.15,242.66,77.15z" fill="#526471"/></g></g><g><g><path d="M289.06,102.92H121c-2.209,0-4-1.791-4-4s1.791-4,4-4h168.06c2.209,0,4,1.791,4,4       S291.269,102.92,289.06,102.92z" fill="#526471"/></g></g><g><g><path d="M289.06,128.7H121c-2.209,0-4-1.791-4-4s1.791-4,4-4h168.06c2.209,0,4,1.791,4,4       S291.269,128.7,289.06,128.7z" fill="#526471"/></g></g><path d="M352.19,366.83v78.11v30.17c0,7.53-5.55,13.64-12.37,13.64H67.63c-6.83,0-12.37-6.12-12.37-13.64V180.19     c0-7.54,5.54-13.64,12.37-13.64h26.48" fill="none"/><path d="M315.95,166.55h23.87c6.82,0,12.37,6.1,12.37,13.64v44.98v76.8v29.8" fill="none"/><path d="M94.11,185.6h-7.46c-2.64,0-5.03,1.04-6.76,2.72c-1.72,1.68-2.79,4-2.79,6.58c0,5.13,4.27,9.3,9.55,9.3h7.46     h221.84h7.45c5.28,0,9.56-4.17,9.56-9.3c0-5.15-4.28-9.3-9.56-9.3h-7.45" fill="none"/><path d="M332.1,255.75c0,6.83-5.54,12.37-12.37,12.37H88.6c-6.83,0-12.37-5.54-12.37-12.37v-17.53     c0-6.83,5.54-12.37,12.37-12.37h231.12c6.84,0,12.38,5.54,12.38,12.37V255.75z" fill="none"/><path d="M123.92,321.73c0,6.84-5.54,12.37-12.38,12.37H92.38c-6.83,0-12.37-5.53-12.37-12.37v-17.52     c0-6.84,5.54-12.38,12.37-12.38h19.16c6.84,0,12.38,5.54,12.38,12.38V321.73z" fill="none"/><path d="M123.92,387.72c0,6.83-5.54,12.37-12.38,12.37H92.38c-6.83,0-12.37-5.54-12.37-12.37v-17.53     c0-6.83,5.54-12.37,12.37-12.37h19.16c6.84,0,12.38,5.54,12.38,12.37V387.72z" fill="none"/><path d="M123.92,453.7c0,6.83-5.54,12.37-12.38,12.37H92.38c-6.83,0-12.37-5.54-12.37-12.37v-17.53     c0-6.83,5.54-12.37,12.37-12.37h19.16c6.84,0,12.38,5.54,12.38,12.37V453.7z" fill="none"/><path d="M192.05,321.73c0,6.84-5.54,12.37-12.37,12.37h-19.16c-6.84,0-12.37-5.53-12.37-12.37v-17.52     c0-6.84,5.53-12.38,12.37-12.38h19.16c6.83,0,12.37,5.54,12.37,12.38V321.73z" fill="none"/><path d="M192.05,387.72c0,6.83-5.54,12.37-12.37,12.37h-19.16c-6.84,0-12.37-5.54-12.37-12.37v-17.53     c0-6.83,5.53-12.37,12.37-12.37h19.16c6.83,0,12.37,5.54,12.37,12.37V387.72z" fill="none"/><path d="M192.05,453.7c0,6.83-5.54,12.37-12.37,12.37h-19.16c-6.84,0-12.37-5.54-12.37-12.37v-17.53     c0-6.83,5.53-12.37,12.37-12.37h19.16c6.83,0,12.37,5.54,12.37,12.37V453.7z" fill="none"/><path d="M260.18,321.73c0,6.84-5.53,12.37-12.37,12.37h-19.16c-6.83,0-12.37-5.53-12.37-12.37v-17.52     c0-6.84,5.54-12.38,12.37-12.38h19.16c6.84,0,12.37,5.54,12.37,12.38V321.73z" fill="none"/><path d="M260.18,387.72c0,6.83-5.53,12.37-12.37,12.37h-19.16c-6.83,0-12.37-5.54-12.37-12.37v-17.53     c0-6.83,5.54-12.37,12.37-12.37h19.16c6.84,0,12.37,5.54,12.37,12.37V387.72z" fill="none"/><path d="M260.18,453.7c0,6.83-5.53,12.37-12.37,12.37h-19.16c-6.83,0-12.37-5.54-12.37-12.37v-17.53     c0-6.83,5.54-12.37,12.37-12.37h19.16c6.84,0,12.37,5.54,12.37,12.37V453.7z" fill="none"/><path d="M328.32,321.73c0,6.84-5.54,12.37-12.37,12.37h-19.16c-6.84,0-12.38-5.53-12.38-12.37v-17.52     c0-6.84,5.54-12.38,12.38-12.38h19.16c6.83,0,12.37,5.54,12.37,12.38V321.73z" fill="none"/><path d="M328.32,387.72c0,6.83-5.54,12.37-12.37,12.37h-19.16c-6.84,0-12.38-5.54-12.38-12.37v-17.53     c0-6.83,5.54-12.37,12.38-12.37h19.16c6.83,0,12.37,5.54,12.37,12.37V387.72z" fill="none"/><path d="M328.32,453.7c0,6.83-5.54,12.37-12.37,12.37h-19.16c-6.84,0-12.38-5.54-12.38-12.37v-17.53     c0-6.83,5.54-12.37,12.38-12.37h19.16c6.83,0,12.37,5.54,12.37,12.37V453.7z" fill="none"/><path d="M456.74,331.77v-17.43c0-6.83-5.54-12.37-12.37-12.37h-92.18" fill="none"/><path d="M352.19,444.94h92.18c6.83,0,12.37-5.54,12.37-12.37v-65.74" fill="none"/><rect fill="none" height="35.06" width="104.55" x="352.19" y="331.77"/><line fill="none" x1="397.76" x2="352.19" y1="225.17" y2="225.17"/></g></g><rect height="142.965" opacity="0.2" width="9.81" x="352.19" y="301.97"/><path d="M332.96,194.9c0,5.13-4.28,9.3-9.56,9.3H86.65c-5.28,0-9.55-4.17-9.55-9.3H332.96z" opacity="0.2"/><linearGradient gradientUnits="userSpaceOnUse" id="SVGID_1_" x1="157.62" x2="332.1" y1="246.985" y2="246.985"><stop offset="0" style="stop-color:#000000"/><stop offset="1" style="stop-color:#FFFFFF;stop-opacity:0"/></linearGradient><path d="M332.1,238.22v17.53c0,6.83-5.54,12.37-12.37,12.37H157.62l81.7-42.27h80.4   C326.56,225.85,332.1,231.39,332.1,238.22z" fill="url(#SVGID_1_)" opacity="0.2"/></g></svg>