<?xml version="1.0" encoding="UTF-8"?>
<svg width="24px" height="24px" viewBox="0 0 24 24" version="1.1" xmlns="http://www.w3.org/2000/svg" xmlns:xlink="http://www.w3.org/1999/xlink">
    <!-- Generator: Sketch 43.1 (39012) - http://www.bohemiancoding.com/sketch -->
    <title>Present_s</title>
    <desc>Created with Sketch.</desc>
    <defs></defs>
    <g id="Icon" stroke="none" stroke-width="1" fill="none" fill-rule="evenodd">
        <g id="Present_s">
            <rect id="Placeholder" x="0" y="0" width="24" height="24"></rect>
            <path d="M9.51997803,10.5397046 C8.49765639,10.5350845 7.67260633,9.67954816 7.6771018,8.62888 C7.68159726,7.57821184 8.51405161,6.73028513 9.53637325,6.73490524 C10.5586949,6.73952535 11.3837449,7.59506166 11.3792495,8.64572983 C11.3768695,9.15394231 11.1769536,9.64014131 10.8236629,9.99616182 C10.475661,10.3464751 10.0070749,10.5418788 9.51997803,10.5397046 Z M19.8066598,17.5103688 C20.0652813,17.7786071 20.064488,18.2115389 19.8040154,18.4781466 L19.084741,19.2173648 C18.8245329,19.4839725 18.4032814,19.4839725 18.1433377,19.2173648 L17.469018,18.5243478 C17.3658867,18.4189005 17.1992901,18.4189005 17.0961588,18.5243478 L15.8612281,19.7935201 C15.7107623,19.9476145 15.4672138,19.9476145 15.3164835,19.7935201 L13.2829467,17.7033264 C13.1327453,17.5478732 13.1327453,17.2967564 13.2829467,17.1410314 L14.5178774,15.8718591 C14.6204798,15.7655965 14.6204798,15.5946523 14.5178774,15.4886614 L11.9105077,12.8089956 C11.8277382,12.7244747 11.7010719,12.7057225 11.5984695,12.7627945 C10.2937269,13.458801 8.74120482,13.458801 7.43672664,12.7627945 C5.22284232,11.5814043 4.35944859,8.77944134 5.50896545,6.50417134 C6.65821787,4.22890133 9.3845852,3.34183954 11.5984695,4.52295797 C13.8123538,5.70434816 14.6754831,8.50631111 13.5262307,10.7815811 C13.4706985,10.8867566 13.4889448,11.0172069 13.5711854,11.1022713 L19.8066598,17.5103688 Z" id="Present" fill="#FFFFFF"></path>
        </g>
    </g>
</svg>