<?xml version="1.0" encoding="UTF-8"?>
<svg width="40px" height="40px" viewBox="0 0 40 40" version="1.1" xmlns="http://www.w3.org/2000/svg" xmlns:xlink="http://www.w3.org/1999/xlink">
    <!-- Generator: Sketch 43.1 (39012) - http://www.bohemiancoding.com/sketch -->
    <title>Present</title>
    <desc>Created with Sketch.</desc>
    <defs></defs>
    <g id="Icon" stroke="none" stroke-width="1" fill="none" fill-rule="evenodd">
        <g id="Present">
            <rect id="Placeholder" x="0" y="0" width="40" height="40"></rect>
            <path d="M13.3819969,17.2794922 L13.3942792,17.2794922 C14.1633432,17.2794922 14.8898913,16.983771 15.4388178,16.4452373 C15.9924683,15.9029244 16.3118094,15.1480324 16.3146437,14.3732996 C16.3212573,12.7633672 15.0174388,11.4472663 13.4084512,11.4406527 C11.7928499,11.4406527 10.4833626,12.7444713 10.4758043,14.3468453 C10.4691907,15.9567778 11.7730092,17.2728786 13.3819969,17.2794922 L13.3819969,17.2794922 Z M22.5323464,19.1199549 L22.4076334,19.0774391 L22.4227501,19.0462608 L22.5323464,19.1199549 Z M22.5861998,19.137906 L22.5011682,19.0991694 L22.5861998,19.137906 Z M13.3460946,19.1728635 L13.3413706,19.1690843 C10.7044449,19.1397956 8.57392987,16.9799919 8.58621221,14.3383422 C8.59849456,11.698582 10.7564087,9.55011587 13.3961688,9.55011587 C16.068052,9.56239822 18.2165182,11.7288155 18.2042358,14.3818028 C18.1995118,15.6582222 17.6732604,16.9025186 16.7615323,17.794406 C15.8573625,18.6806247 14.6612507,19.1690843 13.3961688,19.1690843 L13.3460946,19.1728635 Z M18.1258177,23.5000293 L18.1551064,23.5775025 L18.1258177,23.5000293 Z M18.1418793,23.5822265 L18.0833019,23.4027153 L18.1645544,23.5727786 L18.1418793,23.5822265 Z M21.969248,32.2346686 L26.0791107,36.2868988 L28.5261325,33.7765757 C29.1090716,33.1945813 30.0576468,33.1955261 30.6396412,33.7737413 L32.0483321,35.183377 C32.2221745,35.3581643 32.5056133,35.3562747 32.678511,35.183377 L34.1807367,33.6811513 C34.3536344,33.5082536 34.355524,33.2257596 34.1835711,33.0509724 L21.168061,20.0354622 C20.7041661,19.5696778 20.5992937,18.8421848 20.9110764,18.2649145 C21.9494073,16.2647813 22.1440353,13.9717613 21.4590581,11.810068 C20.7731362,9.64742987 19.2898065,7.88349568 17.2821149,6.84138565 C15.2734785,5.79927563 12.9776242,5.60086847 10.8121517,6.28584559 C8.64951355,6.97082271 6.88463456,8.45415248 5.84346934,10.4627888 C4.80041452,12.4704804 4.60389694,14.7682244 5.28887407,16.9308625 C5.97290639,19.0935006 7.45623616,20.8593244 9.46392773,21.9014344 C11.9118942,23.1712403 14.8350932,23.1702955 17.2821149,21.9014344 C17.494694,21.7871141 17.735617,21.7257023 17.9784296,21.7257023 C18.3742991,21.7257023 18.7493831,21.8806489 19.0328219,22.1621981 L24.479571,27.6089472 C25.0577862,28.1918864 25.058731,29.1395168 24.484295,29.7205663 L21.969248,32.2346686 Z M26.0469877,38.2001107 C25.5812032,38.2001107 25.1428179,38.0196547 24.813084,37.6918105 L20.5662259,33.4449523 C19.8878623,32.76092 19.8869175,31.6498398 20.5633915,30.9686419 L22.8658594,28.666174 L17.9019011,23.7031604 C14.960751,25.1260232 11.4857912,25.080673 8.59377058,23.5784473 C3.51738151,20.9434112 1.53047545,14.6690208 4.16456679,9.5916869 C6.80149251,4.51529783 13.0777725,2.53217096 18.1532168,5.1634279 C23.108672,7.7361075 25.1409283,13.8867297 22.7061889,18.9007622 L35.5488013,31.7452642 C36.4293512,32.6598268 36.4170689,34.1204815 35.5147887,35.0189825 L34.0135078,36.5202634 C33.1065036,37.4282124 31.6250634,37.4291572 30.7142801,36.5202634 L29.5833592,35.3912321 L27.2837257,37.6908657 C26.9549367,38.0187099 26.5156065,38.2001107 26.0469877,38.2001107 L26.0469877,38.2001107 Z" id="Fill-1" fill="#9E9E9E"></path>
        </g>
    </g>
</svg>