<?xml version="1.0" encoding="iso-8859-1"?>
<!-- Generator: Adobe Illustrator 19.0.0, SVG Export Plug-In . SVG Version: 6.00 Build 0)  -->
<svg version="1.1" id="Capa_1" xmlns="http://www.w3.org/2000/svg" xmlns:xlink="http://www.w3.org/1999/xlink" x="0px" y="0px"
	 viewBox="0 0 512.001 512.001" style="enable-background:new 0 0 512.001 512.001;" xml:space="preserve">
<path style="fill:#2D5872;" d="M450.79,129.118H61.21c-7.664,0-13.877,6.213-13.877,13.877v87.197h417.333v-87.197
	C464.667,135.331,458.454,129.118,450.79,129.118z"/>
<path style="fill:#E1EFFB;" d="M428.804,230.192H83.196V50.332c0-5.133,4.161-9.294,9.294-9.294h327.022
	c5.133,0,9.294,4.161,9.294,9.294v179.86H428.804z"/>
<path style="fill:#CCDFED;" d="M428.804,230.192h-38.089V41.038h28.796c5.133,0,9.294,4.161,9.294,9.294v179.86H428.804z"/>
<path style="fill:#FFB124;" d="M498.069,470.962H13.931C6.237,470.962,0,464.725,0,457.031V239.104
	c0-7.694,6.237-13.931,13.931-13.931H498.07c7.694,0,13.931,6.237,13.931,13.931v217.928
	C512,464.725,505.763,470.962,498.069,470.962z"/>
<path style="fill:#FF901E;" d="M498.069,225.173h-38.126c7.694,0,13.931,6.237,13.417,13.931v173.741
	c-2.043-15.558-15.378-27.611-31.485-27.611H70.124c-17.516,0-31.766,14.25-31.766,31.766v53.962h421.585h13.698h24.428
	c7.694,0,13.93-6.237,13.93-13.931V239.104C512,231.41,505.763,225.173,498.069,225.173z"/>
<path style="fill:#2D5872;" d="M55.413,470.962h401.175V417c0-8.125-6.587-14.712-14.712-14.712H70.124
	c-8.125,0-14.712,6.587-14.712,14.712L55.413,470.962L55.413,470.962z"/>
<g>
	<path style="fill:#E1EFFB;" d="M459.851,311.934h-31.728c-2.738,0-4.957-2.219-4.957-4.957v-31.728
		c0-2.738,2.219-4.957,4.957-4.957h31.728c2.738,0,4.957,2.219,4.957,4.957v31.728C464.809,309.714,462.589,311.934,459.851,311.934
		z"/>
	<path style="fill:#E1EFFB;" d="M387.862,311.934h-31.728c-2.738,0-4.957-2.219-4.957-4.957v-31.728
		c0-2.738,2.219-4.957,4.957-4.957h31.728c2.738,0,4.957,2.219,4.957,4.957v31.728C392.819,309.714,390.6,311.934,387.862,311.934z"
		/>
</g>
<g>
	<path style="fill:#FF4C4C;" d="M378.36,127.805H133.64c-4.025,0-7.287,3.262-7.287,7.287c0,4.024,3.262,7.287,7.287,7.287h244.72
		c4.025,0,7.287-3.262,7.287-7.287C385.646,131.067,382.384,127.805,378.36,127.805z"/>
	<path style="fill:#FF4C4C;" d="M378.36,178.864H133.64c-4.025,0-7.287,3.262-7.287,7.287c0,4.024,3.262,7.287,7.287,7.287h244.72
		c4.025,0,7.287-3.262,7.287-7.287C385.646,182.126,382.384,178.864,378.36,178.864z"/>
	<path style="fill:#FF4C4C;" d="M378.36,75.828H133.64c-4.025,0-7.287,3.262-7.287,7.287s3.262,7.287,7.287,7.287h244.72
		c4.025,0,7.287-3.262,7.287-7.287S382.384,75.828,378.36,75.828z"/>
</g>
<g>
</g>
<g>
</g>
<g>
</g>
<g>
</g>
<g>
</g>
<g>
</g>
<g>
</g>
<g>
</g>
<g>
</g>
<g>
</g>
<g>
</g>
<g>
</g>
<g>
</g>
<g>
</g>
<g>
</g>
</svg>
