<?xml version="1.0" encoding="UTF-8"?>
<svg width="24px" height="24px" viewBox="0 0 24 24" version="1.1" xmlns="http://www.w3.org/2000/svg" xmlns:xlink="http://www.w3.org/1999/xlink">
    <!-- Generator: Sketch 43.1 (39012) - http://www.bohemiancoding.com/sketch -->
    <title>Reserved_s</title>
    <desc>Created with Sketch.</desc>
    <defs></defs>
    <g id="Icon" stroke="none" stroke-width="1" fill="none" fill-rule="evenodd">
        <g id="Reserved_s">
            <rect id="Placeholder" x="0" y="0" width="24" height="24"></rect>
            <path d="M14.325,9.33333333 L9.675,9.33333333 L9.675,7.80952381 C9.675,6.50615873 10.717,5.44761905 12,5.44761905 C13.282,5.44761905 14.325,6.50615873 14.325,7.80952381 L14.325,9.33333333 Z M12,16.1904762 C11.175,16.1904762 10.5,15.5047619 10.5,14.6666667 C10.5,13.8285714 11.175,13.1428571 12,13.1428571 C12.825,13.1428571 13.5,13.8285714 13.5,14.6666667 C13.5,15.5047619 12.825,16.1904762 12,16.1904762 L12,16.1904762 Z M16.5,9.33333333 L15.75,9.33333333 L15.75,7.80952381 C15.75,5.70666667 14.07,4 12,4 C9.93,4 8.25,5.70666667 8.25,7.80952381 L8.25,9.33333333 L7.5,9.33333333 C6.675,9.33333333 6,10.0190476 6,10.8571429 L6,18.4761905 C6,19.3142857 6.675,20 7.5,20 L16.5,20 C17.325,20 18,19.3142857 18,18.4761905 L18,10.8571429 C18,10.0190476 17.325,9.33333333 16.5,9.33333333 L16.5,9.33333333 Z" id="Icon" fill="#82B1FF"></path>
        </g>
    </g>
</svg>