<?xml version="1.0" encoding="UTF-8"?>
<svg width="25px" height="40px" viewBox="0 0 25 40" version="1.1" xmlns="http://www.w3.org/2000/svg" xmlns:xlink="http://www.w3.org/1999/xlink">
    <!-- Generator: Sketch 43.1 (39012) - http://www.bohemiancoding.com/sketch -->
    <title>Reserved</title>
    <desc>Created with Sketch.</desc>
    <defs></defs>
    <g id="Page-1" stroke="none" stroke-width="1" fill="none" fill-rule="evenodd">
        <g id="Walkin" transform="translate(-245.000000, -193.000000)" fill="#FFFFFF">
            <g id="Scheduler">
                <g id="Stacked-Group" transform="translate(241.000000, 81.000000)">
                    <g id="Reserved" transform="translate(4.000000, 112.000000)">
                        <path d="M12.5,1.66666667 C18.4925,1.66666667 23.3333333,6.50666667 23.3333333,12.5 L23.3333333,36.6666667 C23.3333333,37.6041667 22.6041667,38.3333333 21.6666667,38.3333333 L3.33333333,38.3333333 C2.39583333,38.3333333 1.66666667,37.6041667 1.66666667,36.6666667 L1.66666667,20 C1.66666667,19.07 2.40333333,18.3333333 3.33333333,18.3333333 L12.5,18.3333333 C14.8566667,18.3333333 16.9875,16.9108333 17.8891667,14.7325 C18.7908333,12.555 18.2908333,10.0416667 16.6241667,8.37583333 C14.9575,6.70916667 12.445,6.20833333 10.2666667,7.11083333 C8.55,7.82166667 7.30166667,9.29666667 6.85083333,11.045 C6.8475,11.0575 6.84583333,11.0708333 6.8425,11.0833333 C6.7375,11.4216667 6.42583333,11.6825 6.04666667,11.6825 L2.62666667,11.6741667 C2.15666667,11.6741667 1.7325,11.2991667 1.79333333,10.8333333 C2.5925,5.63416667 7.07416667,1.66666667 12.5,1.66666667 M12.5,0 C6.17,0 0.925833333,4.72333333 0.110833333,10.8333333 C-0.0675,12.19 1.25583333,13.3333333 2.62666667,13.3333333 L6.04666667,13.3408333 C7.19916667,13.3408333 8.1725,12.5275 8.45583333,11.455 C8.78166667,10.2158333 9.68333333,9.15666667 10.905,8.65083333 C12.4641667,8.005 14.2533333,8.36 15.4458333,9.55416667 C16.6391667,10.7475 16.9958333,12.5358333 16.3491667,14.095 C15.7033333,15.6541667 14.1875,16.6666667 12.5,16.6666667 L3.33333333,16.6666667 C1.5025,16.6666667 0,18.1683333 0,20 L0,36.6666667 C0,38.4983333 1.50083333,40 3.33333333,40 L21.6666667,40 C23.4983333,40 25,38.4983333 25,36.6666667 L25,12.5 C25,5.60583333 19.3941667,0 12.5,0" id="Fill-1"></path>
                        <path d="M12.5,20 C17.1,20 20.8333333,23.7333333 20.8333333,28.3333333 C20.8333333,32.9333333 17.1,36.6666667 12.5,36.6666667 C7.9,36.6666667 4.16666667,32.9333333 4.16666667,28.3333333 C4.16666667,23.7333333 7.9,20 12.5,20 Z M17.5033333,23.3233333 C17.2291667,23.3241667 16.9725,23.4608333 16.8183333,23.6875 L11.4941667,31.2933333 L8.02083333,28.515 C7.86916667,28.39 7.67833333,28.3233333 7.4825,28.325 C6.69083333,28.3316667 6.35416667,29.3333333 6.97916667,29.8175 L10.9975,33.0316667 C11.3408333,33.47 12.0091667,33.4541667 12.3325,33.0008333 C12.3383333,32.9933333 12.3433333,32.9858333 12.3483333,32.9783333 L18.1816667,24.645 C18.5816667,24.0925 18.1841667,23.3208333 17.5033333,23.3233333 Z" id="Combined-Shape"></path>
                    </g>
                </g>
            </g>
        </g>
    </g>
</svg>