<?xml version="1.0" encoding="UTF-8"?>
<svg width="40px" height="40px" viewBox="0 0 40 40" version="1.1" xmlns="http://www.w3.org/2000/svg" xmlns:xlink="http://www.w3.org/1999/xlink">
    <!-- Generator: Sketch 43.1 (39012) - http://www.bohemiancoding.com/sketch -->
    <title>Reserved</title>
    <desc>Created with Sketch.</desc>
    <defs></defs>
    <g id="Icon" stroke="none" stroke-width="1" fill="none" fill-rule="evenodd">
        <g id="Reserved">
            <rect id="Placeholder" x="0" y="0" width="40" height="40"></rect>
            <path d="M24.9714286,15.3333333 L25.9714286,15.3333333 L25.9714286,14.3333333 L25.9714286,11.0952381 C25.9714286,7.77398117 23.2728366,5.07619048 19.952381,5.07619048 C16.6304454,5.07619048 13.9333333,7.77330255 13.9333333,11.0952381 L13.9333333,14.3333333 L13.9333333,15.3333333 L14.9333333,15.3333333 L24.9714286,15.3333333 Z M19.952381,29.9047619 C22.2856181,29.9047619 24.1904762,27.9999038 24.1904762,25.6666667 C24.1904762,23.3334295 22.2856181,21.4285714 19.952381,21.4285714 C17.6191438,21.4285714 15.7142857,23.3334295 15.7142857,25.6666667 C15.7142857,27.9999038 17.6191438,29.9047619 19.952381,29.9047619 Z M29.6666667,15.3333333 C30.8953343,15.3333333 31.9047619,16.3427609 31.9047619,17.5714286 L31.9047619,33.7619048 C31.9047619,34.9905724 30.8953343,36 29.6666667,36 L10.2380952,36 C9.00942761,36 8,34.9905724 8,33.7619048 L8,17.5714286 C8,16.3427609 9.00942761,15.3333333 10.2380952,15.3333333 L11.8571429,15.3333333 L12.8571429,15.3333333 L12.8571429,14.3333333 L12.8571429,11.0952381 C12.8571429,7.17895142 16.0360943,4 19.952381,4 C23.8686676,4 27.047619,7.17895142 27.047619,11.0952381 L27.047619,14.3333333 L27.047619,15.3333333 L28.047619,15.3333333 L29.6666667,15.3333333 Z" stroke="#9E9E9E" stroke-width="2"></path>
        </g>
    </g>
</svg>