<?xml version="1.0" encoding="UTF-8"?>
<svg width="24px" height="24px" viewBox="0 0 24 24" version="1.1" xmlns="http://www.w3.org/2000/svg" xmlns:xlink="http://www.w3.org/1999/xlink">
    <!-- Generator: Sketch 43.1 (39012) - http://www.bohemiancoding.com/sketch -->
    <title>Search</title>
    <desc>Created with Sketch.</desc>
    <defs></defs>
    <g id="Icon" stroke="none" stroke-width="1" fill="none" fill-rule="evenodd">
        <g id="Search">
            <rect id="Placeholder" x="0" y="0" width="24" height="24"></rect>
            <path d="M8.69456533,14.2750936 L3,19.9696589 L4.03034106,21 L9.72490639,15.3054347 C12.4435786,17.509665 16.4439834,17.3464427 18.9724724,14.817225 C21.6758425,12.1138549 21.6758425,7.73089768 18.9724724,5.02752758 C16.2691023,2.32415747 11.8868738,2.32415747 9.18350369,5.02752758 C6.654286,7.55674527 6.49106366,11.5564214 8.69456533,14.2750936 M10.2393482,13.8123874 C8.11891509,11.6919543 8.13057383,8.24315353 10.2648517,6.10960429 C12.3991296,3.97532638 15.8479304,3.96366764 17.9676349,6.0841008 C20.0887967,8.20380528 20.0764093,11.652606 17.9421314,13.7868839 C15.8085821,15.9211618 12.3597814,15.9328206 10.2393482,13.8123874" id="Icon" fill="#2196F3" transform="translate(12.000000, 12.000000) scale(-1, 1) translate(-12.000000, -12.000000) "></path>
        </g>
    </g>
</svg>