<?xml version="1.0" encoding="UTF-8"?>
<svg width="25px" height="40px" viewBox="0 0 25 40" version="1.1" xmlns="http://www.w3.org/2000/svg" xmlns:xlink="http://www.w3.org/1999/xlink">
    <!-- Generator: Sketch 43.1 (39012) - http://www.bohemiancoding.com/sketch -->
    <title>Tentative</title>
    <desc>Created with Sketch.</desc>
    <defs></defs>
    <g id="Page-1" stroke="none" stroke-width="1" fill="none" fill-rule="evenodd">
        <g id="Walkin" transform="translate(-245.000000, -81.000000)" fill="#FFFFFF">
            <g id="Scheduler">
                <g id="Stacked-Group" transform="translate(241.000000, 81.000000)">
                    <path d="M21.5033333,23.3233333 C21.2291667,23.3241667 20.9725,23.4608333 20.8183333,23.6875 L15.4941667,31.2933333 L12.0208333,28.515 C11.8691667,28.39 11.6783333,28.3233333 11.4825,28.325 C10.6908333,28.3316667 10.3541667,29.3333333 10.9791667,29.8175 L14.9975,33.0316667 C15.3408333,33.47 16.0091667,33.4541667 16.3325,33.0008333 C16.3383333,32.9933333 16.3433333,32.9858333 16.3483333,32.9783333 L22.1816667,24.645 C22.5816667,24.0925 22.1841667,23.3208333 21.5033333,23.3233333 M16.5,1.66666667 C22.4925,1.66666667 27.3333333,6.50666667 27.3333333,12.5 L27.3333333,36.6666667 C27.3333333,37.6041667 26.6041667,38.3333333 25.6666667,38.3333333 L7.33333333,38.3333333 C6.39583333,38.3333333 5.66666667,37.6041667 5.66666667,36.6666667 L5.66666667,20 C5.66666667,19.07 6.40333333,18.3333333 7.33333333,18.3333333 L16.5,18.3333333 C18.8566667,18.3333333 20.9875,16.9108333 21.8891667,14.7325 C22.7908333,12.555 22.2908333,10.0416667 20.6241667,8.37583333 C18.9575,6.70916667 16.445,6.20833333 14.2666667,7.11083333 C12.55,7.82166667 11.3016667,9.29666667 10.8508333,11.045 C10.8475,11.0575 10.8458333,11.0708333 10.8425,11.0833333 C10.7375,11.4216667 10.4258333,11.6825 10.0466667,11.6825 L6.62666667,11.6741667 C6.15666667,11.6741667 5.7325,11.2991667 5.79333333,10.8333333 C6.5925,5.63416667 11.0741667,1.66666667 16.5,1.66666667 M16.5,0 C10.17,0 4.92583333,4.72333333 4.11083333,10.8333333 C3.9325,12.19 5.25583333,13.3333333 6.62666667,13.3333333 L10.0466667,13.3408333 C11.1991667,13.3408333 12.1725,12.5275 12.4558333,11.455 C12.7816667,10.2158333 13.6833333,9.15666667 14.905,8.65083333 C16.4641667,8.005 18.2533333,8.36 19.4458333,9.55416667 C20.6391667,10.7475 20.9958333,12.5358333 20.3491667,14.095 C19.7033333,15.6541667 18.1875,16.6666667 16.5,16.6666667 L7.33333333,16.6666667 C5.5025,16.6666667 4,18.1683333 4,20 L4,36.6666667 C4,38.4983333 5.50083333,40 7.33333333,40 L25.6666667,40 C27.4983333,40 29,38.4983333 29,36.6666667 L29,12.5 C29,5.60583333 23.3941667,0 16.5,0" id="Tentative"></path>
                </g>
            </g>
        </g>
    </g>
</svg>