<?xml version="1.0" encoding="UTF-8" standalone="no"?>
<svg width="10px" height="20px" viewBox="0 0 10 20" version="1.1" xmlns="http://www.w3.org/2000/svg" xmlns:xlink="http://www.w3.org/1999/xlink">
    <!-- Generator: Sketch 44.1 (41455) - http://www.bohemiancoding.com/sketch -->
    <title>Women</title>
    <desc>Created with Sketch.</desc>
    <defs></defs>
    <g id="Page-1" stroke="none" stroke-width="1" fill="none" fill-rule="evenodd">
        <g id="Dormitory-CRM" transform="translate(-23.000000, -301.000000)" fill-rule="nonzero" fill="#E57373">
            <g id="Table" transform="translate(0.000000, 192.000000)">
                <path d="M22.9999998,114 C22.9999998,116.761424 25.238576,119 27.9999998,119 C30.7614235,119 32.9999998,116.761424 32.9999998,114 C32.9999998,111.238576 30.7614235,109 27.9999998,109 C25.238576,109 22.9999998,111.238576 22.9999998,114 Z M24.3057033,128.999998 L31.692266,128.999998 C32.1262192,129.000177 32.5319379,128.816396 32.7749596,128.509565 C33.0179812,128.202735 33.0665661,127.812927 32.9046122,127.469332 L30.3486865,122.007999 C30.0644214,121.398846 29.3734425,120.999364 28.6051578,120.999999 L27.3959362,120.999999 C26.6276515,120.999364 25.9366726,121.398846 25.6524074,122.007999 L23.0933572,127.469332 C22.9314033,127.812927 22.9799881,128.202735 23.2230098,128.509565 C23.4660314,128.816396 23.8717502,129.000177 24.3057033,128.999998 Z" id="Women"></path>
            </g>
        </g>
    </g>
</svg>